<svg width="921" height="185" viewBox="0 0 921 185" fill="none" xmlns="http://www.w3.org/2000/svg">
<path d="M368.679 136.325C359.477 136.325 351.485 134.266 344.705 130.148C338.005 126.03 332.879 120.539 329.328 113.676C325.776 106.731 324 99.1008 324 90.7838C324 81.9823 325.897 74.1094 329.691 67.1652C333.565 60.2209 338.974 54.8108 345.916 50.9349C352.858 46.9783 360.728 45 369.526 45C373.482 45 377.155 45.4441 380.545 46.3323C384.016 47.1398 386.881 48.1088 389.142 49.2392C391.402 50.289 392.895 51.1772 393.622 51.9039L387.689 64.016C382.765 59.6557 376.347 57.4755 368.437 57.4755C362.867 57.4755 357.822 58.8482 353.302 61.5936C348.781 64.339 345.23 68.2553 342.646 73.3423C340.063 78.4294 338.772 84.324 338.772 91.026C338.772 97.1628 339.902 102.734 342.162 107.741C344.503 112.747 347.893 116.704 352.333 119.611C356.773 122.518 362.06 123.971 368.195 123.971C375.298 123.971 382.159 121.952 388.778 117.915L392.774 129.421C390.998 131.036 387.729 132.611 382.966 134.145C378.285 135.599 373.522 136.325 368.679 136.325Z" fill="#3448C5"/>
<path d="M407.112 46.4535H420.067V135.477H407.112V46.4535Z" fill="#3448C5"/>
<path d="M464.332 136.689C458.601 136.689 453.515 135.397 449.076 132.813C444.636 130.229 441.205 126.716 438.784 122.275C436.362 117.834 435.151 112.909 435.151 107.498C435.151 102.169 436.322 97.284 438.663 92.8428C441.084 88.4017 444.515 84.8892 448.955 82.3053C453.394 79.7214 458.52 78.4294 464.332 78.4294C470.144 78.4294 475.229 79.7214 479.588 82.3053C484.028 84.8892 487.418 88.4017 489.759 92.8428C492.18 97.284 493.391 102.169 493.391 107.498C493.391 112.909 492.18 117.834 489.759 122.275C487.337 126.716 483.907 130.229 479.467 132.813C475.108 135.397 470.063 136.689 464.332 136.689ZM464.695 126.03C469.377 126.03 473.05 124.294 475.713 120.822C478.458 117.35 479.83 112.989 479.83 107.741C479.83 102.492 478.377 98.0914 475.471 94.5385C472.565 90.9049 468.731 89.0881 463.969 89.0881C459.368 89.0881 455.654 90.8645 452.829 94.4174C450.085 97.9703 448.712 102.411 448.712 107.741C448.712 112.909 450.206 117.269 453.192 120.822C456.179 124.294 460.013 126.03 464.695 126.03Z" fill="#3448C5"/>
<path d="M526.608 136.689C518.94 136.689 513.652 134.428 510.747 129.906C507.921 125.384 506.509 119.086 506.509 111.011V79.8829H519.585V107.741C519.585 112.343 519.828 115.937 520.312 118.521C520.877 121.024 521.926 122.881 523.46 124.092C525.074 125.303 527.456 125.909 530.604 125.909C532.864 125.909 535.043 125.263 537.142 123.971C539.241 122.679 540.936 120.943 542.228 118.763C543.6 116.502 544.286 114.039 544.286 111.374V79.8829H557.242V135.477H546.586L545.134 127.362C543.116 130.512 540.573 132.853 537.505 134.387C534.519 135.922 530.886 136.689 526.608 136.689Z" fill="#3448C5"/>
<path d="M599.216 136.689C594.211 136.689 589.57 135.518 585.292 133.176C581.094 130.754 577.704 127.362 575.121 123.002C572.619 118.561 571.367 113.393 571.367 107.498C571.367 98.697 573.829 91.672 578.753 86.4234C583.677 81.0941 590.337 78.4294 598.732 78.4294C603.413 78.4294 607.692 79.6003 611.566 81.9419C615.441 84.2029 618.064 86.9483 619.437 90.1782L618.831 80.7307V46.4535H631.666V135.477H619.194L618.952 125.667C617.58 128.574 615.078 131.157 611.445 133.418C607.813 135.599 603.736 136.689 599.216 136.689ZM601.396 125.667C605.997 125.667 609.871 124.092 613.019 120.943C616.167 117.713 617.741 113.514 617.741 108.346V107.498C617.741 104.026 617.015 100.918 615.562 98.1722C614.109 95.4268 612.131 93.287 609.629 91.7528C607.127 90.2186 604.382 89.4515 601.396 89.4515C596.229 89.4515 592.234 91.1471 589.408 94.5385C586.583 97.8492 585.171 102.169 585.171 107.498C585.171 112.909 586.543 117.309 589.287 120.701C592.113 124.011 596.149 125.667 601.396 125.667Z" fill="#3448C5"/>
<path d="M649.98 79.8829H663.541V135.477H649.98V79.8829ZM656.64 69.4665C654.137 69.4665 652.039 68.6186 650.343 66.9229C648.648 65.2272 647.801 63.1278 647.801 60.6246C647.801 58.3637 648.648 56.4258 650.343 54.8108C652.039 53.1959 654.137 52.3884 656.64 52.3884C659.061 52.3884 661.12 53.1959 662.815 54.8108C664.51 56.4258 665.357 58.3637 665.357 60.6246C665.357 63.1278 664.51 65.2272 662.815 66.9229C661.2 68.6186 659.142 69.4665 656.64 69.4665Z" fill="#3448C5"/>
<path d="M681.647 79.8829H694.481L694.602 90.0571C696.136 86.6657 698.558 83.8799 701.867 81.6997C705.177 79.5195 709.051 78.4294 713.491 78.4294C719.222 78.4294 723.621 79.6406 726.689 82.0631C729.756 84.4047 731.814 87.7154 732.864 91.995C733.913 96.2746 734.438 101.846 734.438 108.71V135.477H721.361V109.073C721.361 102.048 720.675 97.0013 719.303 93.9329C717.931 90.7838 715.105 89.2092 710.827 89.2092C708.405 89.2092 705.944 89.9763 703.441 91.5105C700.939 92.964 698.84 95.1038 697.145 97.9299C695.531 100.756 694.723 104.067 694.723 107.862V135.477H681.647V79.8829Z" fill="#3448C5"/>
<path d="M775.871 136.689C770.867 136.689 766.225 135.518 761.947 133.176C757.749 130.754 754.359 127.362 751.776 123.002C749.274 118.561 748.023 113.393 748.023 107.498C748.023 101.685 749.112 96.5976 751.292 92.2372C753.552 87.8769 756.74 84.4855 760.857 82.0631C764.974 79.6406 769.817 78.4294 775.387 78.4294C778.616 78.4294 781.643 78.9947 784.468 80.1251C787.293 81.2556 789.674 82.6687 791.612 84.3644C793.549 85.9793 794.841 87.5943 795.486 89.2092L795.729 79.8829H808.2V135.477H795.85L795.607 125.667C794.235 128.574 791.733 131.157 788.1 133.418C784.468 135.599 780.392 136.689 775.871 136.689ZM778.051 125.788C782.652 125.788 786.526 124.213 789.674 121.064C792.823 117.834 794.397 113.635 794.397 108.467V107.62C794.397 104.147 793.67 101.039 792.217 98.2933C790.764 95.5479 788.787 93.4081 786.284 91.8739C783.782 90.3397 781.037 89.5726 778.051 89.5726C772.885 89.5726 768.889 91.2683 766.064 94.6597C763.238 97.9703 761.826 102.29 761.826 107.62C761.826 113.03 763.198 117.43 765.943 120.822C768.768 124.132 772.804 125.788 778.051 125.788Z" fill="#3448C5"/>
<path d="M825.422 79.8829H838.498V90.7838C839.79 87.0694 841.889 84.0817 844.795 81.8208C847.701 79.5599 851.01 78.4294 854.723 78.4294C857.306 78.4294 859.082 78.6717 860.051 79.1562L858.235 92.3584C857.508 91.8739 855.934 91.6316 853.512 91.6316C849.719 91.6316 846.248 92.8428 843.1 95.2653C840.032 97.6877 838.498 101.564 838.498 106.893V135.477H825.422V79.8829Z" fill="#3448C5"/>
<path d="M885.281 137.173L862.276 79.8829H877.048L888.914 115.25L891.577 123.85L894.241 115.25L906.712 79.8829H921L886.855 166H873.294L885.281 137.173Z" fill="#3448C5"/>
<path d="M128.863 0.591488C123.305 1.23774 114.258 3.30576 108.7 5.37377C89.5709 12.3533 75.4825 23.5982 63.85 41.3055C58.4214 49.5776 56.0949 52.0334 53.7684 52.0334C52.2174 52.0334 47.4351 53.1966 43.2991 54.6184C18.0951 63.2782 0 88.2236 0 114.203C0 139.148 13.9591 162.931 34.2515 172.883L41.4895 176.502L44.9793 173.917C47.1766 172.237 48.5983 169.91 48.8568 167.325C49.2446 163.577 48.5983 162.801 40.3263 157.502C24.9454 147.679 16.6734 133.461 16.6734 116.659C16.6734 105.931 17.4489 102.312 22.3604 93.0059C29.34 79.693 43.4283 69.7407 57.6459 68.0605C69.2785 66.768 69.2785 66.768 73.4145 58.2374C81.5573 40.6593 98.4892 25.9247 117.748 19.5914C130.156 15.5846 149.414 15.1968 160.271 18.9451C187.026 28.1219 207.189 49.4483 211.971 73.6183C212.747 77.7543 213.652 82.2781 213.91 83.8291C214.427 86.2848 215.332 86.5433 225.801 86.5433C235.107 86.5433 238.339 87.0603 243.638 89.6454C258.631 96.7542 267.032 111.101 265.998 127.774C265.094 142.25 257.468 152.978 242.992 160.346C234.59 164.482 232.264 168.876 235.754 174.046C237.305 176.373 238.985 177.407 241.828 177.407C247.386 177.407 257.856 171.59 265.611 164.352C287.971 143.284 288.488 107.87 266.903 86.2848C258.631 78.0128 246.352 71.8087 236.141 70.387L228.645 69.4822L224.38 58.4959C209.516 19.0744 171.516 -4.06154 128.863 0.591488Z" fill="#3448C5"/>
<path d="M66.4349 87.3186C59.3261 92.4887 53.2513 97.1417 53.1221 97.9172C52.9928 98.5635 54.1561 99.4682 55.8364 99.856L58.8091 100.631L59.1969 140.182C59.4554 178.311 59.5846 179.733 62.1697 182.06C64.6254 184.257 67.469 184.515 86.8566 184.903C99.7817 185.162 109.346 184.903 110.122 184.128C110.897 183.352 110.251 182.577 108.183 182.06C102.496 180.638 101.979 176.89 102.367 137.339C102.754 101.665 102.884 100.502 105.339 100.114C106.761 99.856 108.441 99.2097 108.958 98.6927C109.863 97.788 82.4621 77.7541 80.5233 78.0126C79.877 78.0126 73.673 82.2778 66.4349 87.3186Z" fill="#3448C5"/>
<path d="M126.407 104.509C118.652 109.808 112.448 114.72 112.448 115.366C112.448 116.141 113.87 116.658 115.68 116.658H118.911V147.679C118.911 176.372 119.04 178.828 121.367 181.155C123.435 183.223 126.795 183.74 145.795 184.515C157.945 185.032 168.543 185.032 169.319 184.515C170.353 183.869 169.448 182.706 166.863 181.155L162.856 178.699V147.679V116.658H166.087C167.897 116.658 169.319 116.141 169.319 115.495C169.319 114.332 144.632 96.2367 141.659 95.2027C140.883 94.9442 134.033 99.0802 126.407 104.509Z" fill="#3448C5"/>
<path d="M187.414 121.053C173.067 131.005 170.87 133.461 176.298 133.461H179.659V155.821C179.659 173.917 180.047 178.699 181.727 181.025C183.666 183.74 184.312 183.869 207.835 183.74C224.767 183.74 230.971 183.352 228.645 182.447C226.835 181.801 224.767 179.862 224.121 178.311C223.475 176.76 223.087 166.032 223.346 154.4C223.604 134.754 223.863 133.461 226.189 133.461C231.488 133.461 229.42 130.876 216.754 122.216C209.516 117.305 202.924 112.91 202.148 112.393C201.502 112.005 194.781 115.883 187.414 121.053Z" fill="#3448C5"/>
</svg>
