<svg width="999" height="185" viewBox="0 0 999 185" fill="none" xmlns="http://www.w3.org/2000/svg">
<path d="M92.4323 0C143.481 0 184.864 41.4137 184.864 92.5C184.864 143.586 143.481 185 92.4323 185C41.3831 185 0 143.586 0 92.5C0 41.4137 41.3831 0 92.4323 0Z" fill="#F73B95"/>
<path d="M92.6521 18.061C133.977 18.061 167.478 51.5864 167.478 92.9422C167.478 134.298 133.977 167.823 92.6521 167.823C51.327 167.823 17.8262 134.298 17.8262 92.9422C17.8262 51.5864 51.327 18.061 92.6521 18.061Z" fill="#BD399C"/>
<path d="M92.6515 37.8828C123.037 37.8828 147.67 62.5333 147.67 92.9426C147.67 123.351 123.037 148.002 92.6515 148.002C62.2652 148.002 37.6329 123.351 37.6329 92.9426C37.6329 62.5333 62.2652 37.8828 92.6515 37.8828V37.8828Z" fill="#93388E"/>
<path d="M92.2115 54.6172C112.873 54.6172 129.624 71.3798 129.624 92.0575C129.624 112.735 112.873 129.498 92.2115 129.498C71.5496 129.498 54.7988 112.735 54.7988 92.0575C54.7988 71.3798 71.5496 54.6172 92.2115 54.6172V54.6172Z" fill="#6030A2"/>
<path d="M244 139.633H280.283C297.004 139.633 309.625 135.372 317.986 126.692C326.504 118.012 330.764 107.912 330.764 96.0766C330.764 84.2405 326.504 73.9827 317.986 65.3032C309.625 56.6232 297.004 52.3625 280.283 52.3625H244V139.633ZM314.2 96.0766C314.2 104.598 311.36 111.858 305.681 117.854C300.16 123.693 291.641 126.692 280.283 126.692H260.091V65.3032H280.283C291.641 65.3032 300.16 68.3014 305.681 74.1406C311.36 80.1375 314.2 87.3966 314.2 96.0766ZM343.699 103.651C343.699 125.587 357.581 141.211 381.717 141.211C397.808 141.211 410.744 133.478 416.423 118.959H398.597C394.653 125.114 389.132 128.27 381.717 128.27C369.413 128.27 361.525 120.38 360.105 108.07H417.685V103.651C417.685 82.0309 403.172 66.0924 380.771 66.0924C358.212 66.0924 343.699 81.558 343.699 103.651V103.651ZM401.121 97.6544H360.263C361.998 86.7653 368.94 79.0327 380.771 79.0327C392.287 79.0327 399.386 86.6074 401.121 97.6544ZM454.441 112.962V79.5062H472.582V67.6701H454.441V50.7844H438.666V67.6701H426.993V79.5062H438.666V112.962C438.666 123.536 440.875 130.637 445.449 134.425C450.024 138.212 456.492 140.106 464.853 140.106C467.534 140.106 469.901 139.948 471.952 139.475L474.949 138.843V126.377L471.952 126.692C469.901 127.007 467.534 127.165 464.853 127.165C456.334 127.165 454.441 122.746 454.441 112.962V112.962ZM522.118 66.5653C511.548 66.5653 503.342 68.7749 497.667 73.3514C491.83 77.9279 488.989 83.4514 488.989 89.9218H505.081C505.081 82.3466 513.6 79.5062 522.118 79.5062C532.844 79.5062 539.467 83.2936 539.467 93.2357V97.6544H520.066C500.978 97.6544 486.149 102.547 486.149 118.643C486.149 133.478 497.505 141.211 514.386 141.211C525.273 141.211 533 138.528 537.577 133.162L539.785 130.48C539.785 133.478 541.045 138.054 541.519 139.633H557.296V138.37L556.192 134.898C555.562 132.531 555.244 128.901 555.244 123.851V96.0766C555.244 74.9297 543.258 66.5653 522.118 66.5653V66.5653ZM539.467 108.228C539.467 122.589 532.214 130.006 518.489 130.006C509.496 130.006 502.238 127.007 502.238 119.433C502.238 110.753 510.126 108.228 520.066 108.07L539.467 108.228ZM678.293 83.1357H694.538C689.493 63.0936 673.716 49.9953 651.628 49.9953C624.183 49.9953 605.251 69.4062 605.251 96.0766C605.251 122.431 624.027 142 651.628 142C673.242 142 689.331 129.217 694.538 108.859H678.293C674.508 120.38 664.724 128.743 651.628 128.743C634.279 128.743 622.132 115.172 622.132 96.0766C622.132 77.1388 633.962 63.2515 651.628 63.2515C664.411 63.2515 674.346 71.3002 678.293 83.1357V83.1357ZM726.404 41H710.633V139.633H726.404V41ZM744.071 103.651C744.071 114.54 747.544 123.536 754.329 130.637C761.114 137.739 770.574 141.211 782.41 141.211H782.566C794.396 141.211 803.706 137.739 810.485 130.637C817.27 123.536 820.743 114.54 820.743 103.651C820.743 92.7622 817.27 83.7671 810.485 76.6653C803.706 69.5641 794.24 66.0924 782.41 66.0924C770.574 66.0924 761.114 69.5641 754.329 76.6653C747.544 83.7671 744.071 92.7622 744.071 103.651ZM804.648 103.651C804.648 117.381 796.765 128.27 782.41 128.27C768.684 128.27 760.166 117.854 760.166 103.651C760.166 89.6062 768.841 79.0327 782.41 79.0327C796.13 79.0327 804.648 89.6062 804.648 103.651ZM867.438 140.895C878.164 140.895 887.63 136.634 892.202 129.059L892.832 139.633H907.349V67.6701H891.728V109.333C891.728 115.961 889.52 120.695 885.105 123.693C880.689 126.534 876.113 127.954 871.536 127.954C866.803 127.954 862.705 126.534 859.076 123.693C855.446 120.695 853.713 115.961 853.713 109.333V67.6701H837.936V109.333C837.936 129.69 848.032 140.895 867.438 140.895V140.895ZM959.089 66.0924C937.637 66.0924 925.172 82.1888 925.172 103.651C925.172 124.798 937.319 141.211 959.089 141.211C970.289 141.211 978.178 137.739 982.755 130.637L983.858 128.901L984.488 139.633H999V41H983.385V77.6123L982.755 76.6653C978.178 69.5641 970.289 66.0924 959.089 66.0924V66.0924ZM961.927 78.5592C975.652 78.5592 983.385 89.764 983.385 103.651C983.385 117.065 975.97 128.743 961.927 128.743C948.207 128.743 940.949 118.012 940.949 103.651C940.949 90.2375 948.045 78.5592 961.927 78.5592Z" fill="black"/>
</svg>
