<svg width="607" height="185" viewBox="0 0 607 185" fill="none" xmlns="http://www.w3.org/2000/svg">
<path d="M302.612 85.6572H270.932C270.539 85.6574 270.162 85.8136 269.885 86.0915C269.607 86.3694 269.451 86.7463 269.451 87.1392V102.635C269.451 103.453 270.114 104.117 270.932 104.117H283.29V123.371C283.29 123.371 280.515 124.316 272.843 124.316C263.792 124.316 251.148 121.008 251.148 93.192C251.148 65.3695 264.315 61.7089 276.675 61.7089C287.374 61.7089 291.984 63.5938 294.917 64.5017C295.839 64.7828 296.691 63.8655 296.691 63.0479L300.225 48.0756C300.225 47.6924 300.096 47.2314 299.66 46.9188C298.469 46.0682 291.202 42 272.843 42C251.695 42 230 51.0027 230 94.2766C230 137.551 254.838 144 275.769 144C293.099 144 303.612 136.591 303.612 136.591C304.045 136.352 304.092 135.746 304.092 135.469V87.1392C304.092 86.9446 304.054 86.7519 303.98 86.5721C303.905 86.3923 303.796 86.2289 303.659 86.0913C303.521 85.9537 303.358 85.8445 303.178 85.77C302.999 85.6955 302.806 85.6572 302.612 85.6572V85.6572ZM465.878 47.185C465.879 46.9905 465.843 46.7975 465.77 46.6172C465.697 46.4368 465.589 46.2727 465.452 46.1343C465.315 45.9958 465.153 45.8858 464.974 45.8104C464.794 45.735 464.602 45.6959 464.407 45.6952H446.569C446.375 45.696 446.182 45.7352 446.002 45.8105C445.823 45.8858 445.66 45.9958 445.523 46.1341C445.386 46.2725 445.277 46.4365 445.203 46.6168C445.13 46.7971 445.092 46.9902 445.093 47.185L445.097 81.6738H417.293V47.185C417.293 46.3604 416.637 45.6952 415.82 45.6952H397.983C397.591 45.6977 397.215 45.856 396.939 46.1353C396.663 46.4146 396.509 46.7922 396.511 47.185V140.569C396.511 141.392 397.172 142.062 397.983 142.062H415.82C416.637 142.062 417.293 141.392 417.293 140.569V100.625H445.097L445.049 140.569C445.049 141.392 445.709 142.062 446.527 142.062H464.406C465.222 142.062 465.875 141.392 465.877 140.569L465.878 47.185ZM336.272 59.4392C336.272 53.014 331.123 47.8212 324.769 47.8212C318.423 47.8212 313.269 53.014 313.269 59.4392C313.269 65.8588 318.423 71.0658 324.769 71.0658C331.123 71.0658 336.272 65.8588 336.272 59.4392ZM334.997 120.87V77.7634C334.997 76.9458 334.337 76.2767 333.521 76.2767H315.74C314.924 76.2767 314.194 77.1171 314.194 77.9362V139.695C314.194 141.509 315.324 142.049 316.787 142.049H332.808C334.566 142.049 334.997 141.185 334.997 139.666V120.87ZM533.669 76.4165H515.969C515.156 76.4165 514.496 77.0856 514.496 77.9103V123.698C514.496 123.698 509.998 126.99 503.616 126.99C497.234 126.99 495.54 124.092 495.54 117.841V77.9095C495.54 77.0849 494.88 76.4157 494.068 76.4157H476.103C475.292 76.4157 474.627 77.0849 474.627 77.9095V120.863C474.627 139.434 484.973 143.978 499.205 143.978C510.882 143.978 520.296 137.524 520.296 137.524C520.296 137.524 520.743 140.925 520.947 141.328C521.149 141.73 521.677 142.137 522.249 142.137L533.678 142.087C534.488 142.087 535.152 141.416 535.152 140.595L535.146 77.9095C535.146 77.0849 534.485 76.4157 533.669 76.4157V76.4165ZM575.068 126.934C568.928 126.746 564.763 123.96 564.763 123.96V94.3866C564.763 94.3866 568.871 91.8671 573.912 91.4171C580.287 90.8461 586.429 92.7718 586.429 107.985C586.429 124.026 583.658 127.193 575.068 126.934V126.934ZM582.049 74.3188C571.995 74.3188 565.158 78.8072 565.158 78.8072V47.185C565.158 46.3604 564.498 45.6952 563.686 45.6952H545.797C545.602 45.6962 545.41 45.7355 545.231 45.811C545.051 45.8864 544.889 45.9964 544.752 46.1348C544.615 46.2731 544.507 46.4371 544.433 46.6173C544.36 46.7975 544.323 46.9904 544.324 47.185V140.569C544.324 141.393 544.984 142.063 545.799 142.063H558.21C558.769 142.063 559.193 141.774 559.506 141.269C559.814 140.767 560.259 136.965 560.259 136.965C560.259 136.965 567.573 143.899 581.42 143.899C597.678 143.899 607 135.649 607 106.865C607 78.0807 592.11 74.3188 582.049 74.3188V74.3188ZM386.264 76.2681H372.883L372.863 58.5823C372.863 57.9132 372.519 57.5786 371.744 57.5786H353.51C352.802 57.5786 352.421 57.8912 352.421 58.5729V76.8485C352.421 76.8485 343.283 79.0546 342.666 79.2336C342.358 79.3228 342.087 79.5099 341.894 79.7665C341.701 80.0232 341.597 80.3356 341.597 80.6567V92.1412C341.597 92.9658 342.256 93.6334 343.072 93.6334H352.422V121.261C352.422 141.781 366.809 143.797 376.517 143.797C380.954 143.797 386.261 142.372 387.137 142.048C387.667 141.854 387.975 141.305 387.975 140.71L387.99 128.077C387.99 127.252 387.294 126.584 386.511 126.584C385.731 126.584 383.736 126.902 381.682 126.902C375.11 126.902 372.882 123.846 372.882 119.889V93.6326H386.264C386.459 93.6317 386.651 93.5923 386.831 93.5168C387.011 93.4413 387.174 93.3312 387.311 93.1926C387.448 93.054 387.557 92.8898 387.63 92.7092C387.704 92.5287 387.741 92.3354 387.74 92.1404V77.7563C387.74 76.9317 387.079 76.2681 386.264 76.2681" fill="#0F0E0F"/>
<path fill-rule="evenodd" clip-rule="evenodd" d="M94.5 0C42.2887 0 0 42.4408 0 94.8397C0 136.806 27.0506 172.253 64.6144 184.819C69.3394 185.649 71.1112 182.803 71.1112 180.314C71.1112 178.061 70.9931 170.593 70.9931 162.65C47.25 167.036 41.1075 156.841 39.2175 151.506C38.1544 148.78 33.5475 140.363 29.5312 138.11C26.2237 136.332 21.4987 131.946 29.4131 131.827C36.855 131.709 42.1706 138.703 43.9425 141.548C52.4475 155.893 66.0319 151.862 71.4656 149.372C72.2925 143.208 74.7731 139.059 77.49 136.688C56.4637 134.317 34.4925 126.137 34.4925 89.8606C34.4925 79.5468 38.1544 71.0112 44.1788 64.3724C43.2338 62.0014 39.9262 52.2804 45.1237 39.2399C45.1237 39.2399 53.0381 36.7504 71.1112 48.961C78.6712 46.8271 86.7038 45.7601 94.7363 45.7601C102.769 45.7601 110.801 46.8271 118.361 48.961C136.434 36.6318 144.349 39.2399 144.349 39.2399C149.546 52.2804 146.239 62.0014 145.294 64.3724C151.318 71.0112 154.98 79.4282 154.98 89.8606C154.98 126.255 132.891 134.317 111.864 136.688C115.29 139.651 118.243 145.342 118.243 154.233C118.243 166.918 118.125 177.113 118.125 180.314C118.125 182.803 119.897 185.767 124.622 184.819C161.949 172.253 189 136.688 189 94.8397C189 42.4408 146.711 0 94.5 0Z" fill="#1B1F23"/>
</svg>
