<svg width="3392" height="1851" viewBox="0 0 3392 1851" fill="none" xmlns="http://www.w3.org/2000/svg">
<path d="M596.205 869.896C423.31 892.525 289.096 1041.03 289.096 1219.89C289.096 1344.17 353.908 1453.79 451.485 1516.71C486.319 1503.24 517.412 1484.03 549.062 1463.68C534.815 1458.54 522.505 1454.64 515.342 1452.62C469.207 1439.7 424.531 1405.83 409.276 1356.4C401.877 1332.46 404.071 1309.08 406.284 1285.5C407.728 1270.1 409.181 1254.61 407.976 1238.83C404.978 1199.57 397.205 1167.49 378.926 1132.18C423.841 1135.92 454.722 1149.45 484.859 1172.85C482.87 1148.18 473.69 1125.02 463.317 1101.28C512.291 1102.13 546.25 1115.1 578.669 1138.95L596.205 869.896Z" fill="#00679A"/>
<path d="M595.887 1116.77C610.001 1098.57 625.627 1081.94 642.102 1067.14C658.577 1081.94 674.203 1098.57 688.343 1116.77L667.836 783.944L642.102 751.579L616.368 783.944L595.887 1116.77Z" fill="#00679A"/>
<path d="M705.535 1138.95C737.954 1115.1 771.912 1102.13 820.887 1101.28C810.513 1125.02 801.334 1148.18 799.344 1172.85C829.482 1149.45 860.363 1135.92 905.278 1132.18C886.999 1167.49 879.226 1199.57 876.228 1238.83C875.034 1254.59 876.484 1270.06 877.926 1285.44C880.139 1309.04 882.333 1332.44 874.928 1356.4C859.673 1405.83 814.997 1439.7 768.861 1452.62C761.698 1454.64 749.389 1458.54 735.142 1463.68C766.792 1484.03 797.885 1503.24 832.745 1516.71C930.296 1453.79 995.108 1344.17 995.108 1219.89C995.108 1041.03 860.894 892.525 687.999 869.923L705.535 1138.95Z" fill="#00679A"/>
<path d="M713.281 1154.2C738.405 1199.01 756.552 1254.4 756.021 1309.45C755.57 1357.2 730.871 1427.34 685.85 1466.58C729.067 1442.83 798.655 1381.02 802.687 1326.13C804.881 1296.1 798.775 1268.72 792.627 1241.16C788.518 1222.74 784.39 1204.23 782.71 1184.79C780.826 1163.17 789.104 1136.91 796.028 1117.49C764.564 1121.55 733.603 1137.73 713.281 1154.2Z" fill="#00679A"/>
<path d="M570.922 1154.2C550.6 1137.73 519.64 1121.55 488.176 1117.49C495.1 1136.91 503.377 1163.17 501.494 1184.79C499.814 1204.23 495.686 1222.74 491.577 1241.16C485.429 1268.72 479.322 1296.1 481.517 1326.13C485.549 1381.02 555.137 1442.83 598.354 1466.58C553.333 1427.34 528.634 1357.2 528.183 1309.45C527.652 1254.4 545.799 1199.01 570.922 1154.2Z" fill="#00679A"/>
<path d="M484.223 1196.54C465.572 1175.4 432.888 1159.85 406.384 1151.36C419.57 1176.46 423.867 1208.32 425.831 1234.72C426.987 1250.26 425.62 1266.56 424.259 1282.8C422.092 1308.64 419.941 1334.3 428.006 1356.38C447.903 1410.84 496.984 1429.46 548.823 1445.27C504.492 1416.38 469.658 1377.17 465.387 1324.75C463.17 1297.38 469.295 1270.42 475.309 1243.96C478.942 1227.97 482.534 1212.16 484.223 1196.54Z" fill="#00679A"/>
<path d="M799.981 1196.54C801.669 1212.16 805.262 1227.97 808.895 1243.96C814.908 1270.42 821.033 1297.38 818.817 1324.75C814.546 1377.17 779.712 1416.38 735.381 1445.27C787.22 1429.46 836.3 1410.84 856.198 1356.38C864.263 1334.3 862.112 1308.64 859.945 1282.8C858.584 1266.56 857.216 1250.26 858.373 1234.72C860.336 1208.32 864.634 1176.46 877.82 1151.36C851.316 1159.85 818.631 1175.4 799.981 1196.54Z" fill="#00679A"/>
<path d="M642.102 1486.37C694.949 1446.6 737.769 1382.75 738.405 1313.69C739.228 1224.71 695.878 1142.72 642.102 1089.84C588.326 1142.72 545.003 1224.71 545.799 1313.69C546.435 1382.75 589.254 1446.6 642.102 1486.37Z" fill="#00679A"/>
<path d="M575.3 1473.82C543.835 1501.01 508.02 1522.05 469.817 1536.29L486.106 1563.56H798.097L814.387 1536.29C776.184 1522.05 740.368 1501.01 708.904 1473.82C680.04 1485.76 650.857 1500.72 642.102 1514.57C633.347 1500.72 604.164 1485.76 575.3 1473.82Z" fill="#00679A"/>
<path fill-rule="evenodd" clip-rule="evenodd" d="M145.755 1219.89C145.755 1258.03 150.132 1296.1 158.861 1333.22H215.741C225.796 1370.94 240.918 1407.28 260.603 1441.05L220.251 1481.4C240.334 1513.85 264.131 1543.85 291.139 1570.83C318.119 1597.84 348.125 1621.63 380.544 1641.72C393.995 1628.27 407.445 1614.82 420.923 1601.37C454.695 1621.05 491.014 1636.17 528.74 1646.23V1703.1C565.882 1711.8 603.899 1716.21 642.102 1716.21C680.305 1716.21 718.322 1711.8 755.464 1703.1V1646.23C793.189 1636.17 829.509 1621.05 863.281 1601.37C876.758 1614.82 890.209 1628.27 903.66 1641.72C936.079 1621.63 966.084 1597.84 993.065 1570.83C1020.07 1543.85 1043.87 1513.85 1063.98 1481.4C1050.5 1467.95 1037.05 1454.5 1023.6 1441.05C1043.29 1407.28 1058.41 1370.94 1068.46 1333.22H1125.34C1134.07 1296.1 1138.45 1258.03 1138.45 1219.89C1138.45 1181.74 1134.07 1143.67 1125.34 1106.56H1068.46C1058.41 1068.83 1043.29 1032.49 1023.6 998.719C1037.05 985.269 1050.5 971.819 1063.98 958.369C1043.87 925.924 1020.07 895.921 993.065 868.915C966.084 841.935 936.079 818.139 903.66 798.057C890.209 811.507 876.758 824.957 863.281 838.407C829.509 818.723 793.189 803.601 755.464 793.547V736.67C718.322 727.942 680.305 723.565 642.102 723.565C603.899 723.565 565.882 727.942 528.74 736.67V793.547C491.014 803.601 454.695 818.723 420.923 838.407C407.445 824.957 393.995 811.507 380.544 798.057C348.125 818.139 318.119 841.935 291.139 868.915C264.131 895.921 240.334 925.924 220.251 958.369L260.603 998.719C240.918 1032.49 225.796 1068.83 215.741 1106.56H158.861C150.132 1143.67 145.755 1181.74 145.755 1219.89ZM686.566 847.692C872.222 869.79 1017.02 1028.46 1017.02 1219.89C1017.02 1353.56 946.399 1471.24 840.598 1537.65L810.619 1587.78H473.584L443.606 1537.65C337.805 1471.24 267.209 1353.56 267.209 1219.89C267.209 1028.46 411.982 869.79 597.638 847.665L602.307 775.826L642.102 728.473L681.897 775.826L686.566 847.692Z" fill="#00679A"/>
<path fill-rule="evenodd" clip-rule="evenodd" d="M0 0H1284.2V1678.88C1094.89 1788.31 875.565 1851 642.102 1851C408.666 1851 189.344 1788.34 0 1678.88V0ZM642.102 701.679C687.733 701.679 733.285 707.966 777.351 719.692V777.869C805.791 786.597 833.064 798.031 858.904 811.825L900.158 770.574C939.634 793.415 976.298 821.19 1008.56 853.449C1040.82 885.707 1068.6 922.37 1091.44 961.844L1050.18 1003.1C1063.98 1028.93 1075.41 1056.21 1084.14 1084.64H1142.32C1154.07 1128.68 1160.34 1174.28 1160.34 1219.89C1160.34 1265.49 1154.07 1311.09 1142.32 1355.13H1084.14C1075.41 1383.57 1063.98 1410.84 1050.18 1436.68L1091.44 1477.93C1068.6 1517.4 1040.82 1554.07 1008.56 1586.33C976.298 1618.56 939.634 1646.36 900.158 1669.2L858.904 1627.95C833.064 1641.74 805.791 1653.18 777.351 1661.9V1720.08C733.285 1731.81 687.733 1738.09 642.102 1738.09C596.471 1738.09 550.919 1731.81 506.853 1720.08V1661.9C478.413 1653.18 451.14 1641.74 425.3 1627.95L384.046 1669.2C344.57 1646.36 307.905 1618.56 275.645 1586.33C243.385 1554.07 215.608 1517.4 192.766 1477.93L234.02 1436.68C220.224 1410.84 208.816 1383.57 200.062 1355.13H141.908C130.155 1311.09 123.868 1265.49 123.868 1219.89C123.868 1174.28 130.155 1128.68 141.908 1084.64H200.062C208.816 1056.21 220.224 1028.93 234.02 1003.1L192.766 961.844C215.608 922.37 243.385 885.707 275.645 853.449C307.905 821.19 344.57 793.415 384.046 770.574L425.3 811.825C451.14 798.031 478.413 786.597 506.853 777.869V719.692C550.919 707.966 596.471 701.679 642.102 701.679Z" fill="#00679A"/>
<path d="M1529.23 1073.5C1529.23 1088.04 1531.17 1100.4 1549.66 1110.85H1418.95C1437.63 1100.54 1439.4 1087.96 1439.4 1073.5V783.334H1529.23V1073.5Z" fill="#00679A"/>
<path d="M1529.23 704.862H2230.55L2140.51 783.334H2015.9C1994.28 788.639 1985.97 800.763 1986.16 814.266C1986.47 839.417 2013.27 845.258 2044.87 852.146C2050.41 853.352 2056.08 854.59 2061.79 855.969C2089.76 862.707 2117.77 871.17 2130.64 875.653C2184.55 894.435 2222.38 924.651 2223.2 988.213C2224.34 1075.7 2134.43 1113.83 2051.53 1116.21C2005.26 1117.54 1960.08 1108.25 1915.64 1097.59L1894.87 1017C1922.19 1027.45 1988.6 1042.81 2045.4 1043.1C2105.83 1043.39 2136.24 1029.94 2135.15 993.997C2134.25 964.444 2108.38 950.145 2070.04 940.913C2058.61 938.146 2046.28 935.535 2034.82 933.108C2018.27 929.601 2003.52 926.478 1995.92 923.829C1942.01 905.073 1898.05 887.989 1897.2 824.426C1897.02 809.279 1899.54 795.59 1904.31 783.334H1774.1V1073.5C1774.1 1088.04 1776.04 1100.4 1794.53 1110.85H1663.85C1682.52 1100.54 1684.27 1087.96 1684.27 1073.5V783.334H1529.23V704.862Z" fill="#00679A"/>
<path d="M1529.23 704.862H1418.95C1438 715.076 1439.4 727.332 1439.4 741.896V783.334L1529.23 704.862Z" fill="#00679A"/>
<path d="M3392 1600.41C3390.28 1599.16 3388.55 1598.26 3386.77 1597.68C3384.97 1597.12 3383.06 1596.86 3380.88 1596.86C3373.03 1596.86 3367.06 1599.51 3362.95 1604.82C3358.84 1610.07 3356.79 1617.73 3356.79 1627.74V1668.03C3356.79 1672.75 3357.38 1676.71 3358.6 1679.89C3359.85 1683.07 3361.78 1685.89 3364.44 1688.22H3328.14C3330.85 1685.89 3332.84 1683.07 3334.01 1679.89C3335.17 1676.71 3335.78 1672.75 3335.78 1668.03V1600.76C3335.78 1595.95 3335.17 1591.9 3333.95 1588.63C3332.71 1585.37 3330.8 1582.56 3328.14 1580.17H3330.56C3334.19 1580.17 3338.01 1579.98 3342.07 1579.56C3346.1 1579.16 3350.53 1578.55 3355.34 1577.76L3357.01 1594.95C3360.27 1589.19 3363.98 1584.92 3368.23 1582.16C3372.45 1579.37 3377.25 1577.97 3382.66 1577.97C3383.99 1577.97 3385.37 1578.05 3386.77 1578.21C3388.15 1578.37 3389.9 1578.63 3392 1579.08V1600.41Z" fill="#00679A"/>
<path fill-rule="evenodd" clip-rule="evenodd" d="M3227.86 1631.61C3228.39 1645.06 3232.64 1655.78 3240.65 1663.74C3248.69 1671.69 3259.19 1675.67 3272.16 1675.67C3277.92 1675.67 3284.02 1674.74 3290.42 1672.83C3296.84 1670.95 3303.76 1668.06 3311.22 1664.13L3299.23 1685.01C3292.8 1687.4 3286.78 1689.18 3281.24 1690.34C3275.67 1691.51 3270.49 1692.12 3265.59 1692.12C3247.6 1692.12 3232.82 1686.68 3221.17 1675.81C3209.53 1664.93 3203.74 1651.13 3203.74 1634.37C3203.74 1617.2 3209.08 1603.12 3219.77 1592.11C3230.51 1581.13 3244.15 1575.63 3260.81 1575.63C3276.14 1575.63 3288.29 1580.62 3297.34 1590.68C3306.39 1600.73 3311 1614.37 3311.22 1631.61H3227.86ZM3229.4 1616.41H3287.13C3286.68 1608.79 3283.86 1602.53 3278.66 1597.68C3273.52 1592.82 3267.07 1590.41 3259.38 1590.41C3251.07 1590.41 3244.26 1592.72 3238.95 1597.33C3233.62 1601.98 3230.43 1608.34 3229.4 1616.41Z" fill="#00679A"/>
<path d="M3107.07 1671.14C3109.93 1672.75 3112.91 1673.98 3115.93 1674.74C3118.95 1675.54 3122.22 1675.91 3125.69 1675.91C3138.22 1675.91 3148.11 1672.14 3155.43 1664.69C3162.7 1657.24 3166.34 1647.1 3166.34 1634.37C3166.34 1622.85 3163.34 1613.49 3157.34 1606.35C3151.37 1599.19 3143.52 1595.64 3133.81 1595.64C3131.08 1595.64 3128.08 1596.01 3124.84 1596.8C3121.58 1597.57 3117.89 1598.71 3113.83 1600.2L3125.48 1579.53C3127.95 1579.19 3130.15 1578.9 3132.11 1578.71C3134.05 1578.5 3135.93 1578.45 3137.68 1578.45C3153.18 1578.45 3165.57 1583.33 3174.91 1593.14C3184.22 1602.96 3188.89 1615.98 3188.89 1632.3C3188.89 1650.71 3182.87 1665.33 3170.77 1676.2C3158.72 1687.08 3142.38 1692.55 3121.79 1692.55C3116.35 1692.55 3109.99 1692.09 3102.69 1691.14C3095.48 1690.24 3087.28 1688.86 3078.18 1687.13C3080.83 1684.75 3082.77 1681.93 3084.02 1678.67C3085.24 1675.41 3085.85 1671.4 3085.85 1666.57V1550.19C3085.85 1545.39 3085.24 1541.36 3084.02 1538.15C3082.77 1534.94 3080.83 1532.15 3078.18 1529.77H3107.07V1671.14Z" fill="#00679A"/>
<path d="M2904.86 1668.03C2904.86 1672.75 2905.47 1676.71 2906.69 1679.89C2907.94 1683.07 2909.87 1685.89 2912.53 1688.22H2876.21C2878.94 1685.89 2880.9 1683.07 2882.1 1679.89C2883.26 1676.71 2883.87 1672.75 2883.87 1668.03V1600.76C2883.87 1595.95 2883.26 1591.9 2882.04 1588.63C2880.8 1585.37 2878.86 1582.56 2876.21 1580.17H2878.65C2882.28 1580.17 2886.1 1579.98 2890.16 1579.56C2894.17 1579.16 2898.6 1578.55 2903.43 1577.76L2904.41 1594.95C2909.9 1589.11 2915.47 1584.81 2921.2 1581.95C2926.88 1579.16 2932.87 1577.76 2939.16 1577.76C2946.7 1577.76 2953.51 1579.29 2959.59 1582.43C2965.67 1585.53 2971.1 1590.25 2976.01 1596.62C2982.75 1590.12 2989.14 1585.34 2995.25 1582.29C3001.35 1579.27 3007.61 1577.76 3013.98 1577.76C3025.89 1577.76 3035.55 1581.39 3043 1588.63C3050.43 1595.9 3054.14 1605.45 3054.14 1617.28V1668.03C3054.14 1672.75 3054.75 1676.71 3055.97 1679.89C3057.22 1683.07 3059.18 1685.89 3061.92 1688.22H3025.49C3028.22 1685.89 3030.19 1683.07 3031.46 1679.89C3032.65 1676.71 3033.26 1672.75 3033.26 1668.03V1629.38C3033.26 1617.63 3031.14 1609.06 3026.9 1603.67C3022.63 1598.34 3015.86 1595.64 3006.63 1595.64C2997.02 1595.64 2990.13 1598.1 2985.93 1603.04C2981.77 1607.95 2979.67 1616.17 2979.67 1627.74V1668.03C2979.67 1672.75 2980.28 1676.71 2981.45 1679.89C2982.64 1683.07 2984.61 1685.89 2987.34 1688.22H2950.68C2953.41 1685.89 2955.37 1683.07 2956.65 1679.89C2957.84 1676.71 2958.45 1672.75 2958.45 1668.03V1629.38C2958.45 1617.63 2956.33 1609.06 2952.08 1603.67C2947.81 1598.34 2941.05 1595.64 2931.81 1595.64C2922.21 1595.64 2915.31 1598.1 2911.12 1603.04C2906.95 1607.95 2904.86 1616.17 2904.86 1627.74V1668.03Z" fill="#00679A"/>
<path fill-rule="evenodd" clip-rule="evenodd" d="M2775.92 1631.61C2776.45 1645.06 2780.7 1655.78 2788.74 1663.74C2796.78 1671.69 2807.26 1675.67 2820.23 1675.67C2825.99 1675.67 2832.09 1674.74 2838.51 1672.83C2844.9 1670.95 2851.83 1668.06 2859.31 1664.13L2847.29 1685.01C2840.9 1687.4 2834.87 1689.18 2829.33 1690.34C2823.76 1691.51 2818.56 1692.12 2813.68 1692.12C2795.66 1692.12 2780.89 1686.68 2769.26 1675.81C2757.62 1664.93 2751.81 1651.13 2751.81 1634.37C2751.81 1617.2 2757.17 1603.12 2767.86 1592.11C2778.58 1581.13 2792.21 1575.63 2808.9 1575.63C2824.21 1575.63 2836.39 1580.62 2845.43 1590.68C2854.45 1600.73 2859.07 1614.37 2859.31 1631.61H2775.92ZM2777.49 1616.41H2835.19C2834.74 1608.79 2831.93 1602.53 2826.76 1597.68C2821.61 1592.82 2815.16 1590.41 2807.47 1590.41C2799.16 1590.41 2792.35 1592.72 2787.04 1597.33C2781.68 1601.98 2778.5 1608.34 2777.49 1616.41Z" fill="#00679A"/>
<path d="M2615.84 1735.52C2618.58 1733.13 2620.54 1730.37 2621.71 1727.19C2622.87 1724.01 2623.48 1720.06 2623.48 1715.33V1600.73C2623.48 1595.9 2622.87 1591.9 2621.68 1588.63C2620.43 1585.37 2618.5 1582.56 2615.84 1580.17H2618.71C2622.74 1580.17 2626.75 1579.98 2630.83 1579.56C2634.89 1579.16 2639.06 1578.55 2643.27 1577.76L2644.26 1594.95C2649.83 1588.9 2655.9 1584.34 2662.54 1581.31C2669.17 1578.29 2676.25 1576.77 2683.79 1576.77C2698.72 1576.77 2711.35 1582.03 2721.56 1592.56C2731.86 1603.14 2736.95 1616.14 2736.95 1631.61C2736.95 1641.77 2734.99 1651 2731.01 1659.41C2727.08 1667.79 2721.38 1674.77 2714 1680.24C2709.12 1683.95 2703.92 1686.68 2698.46 1688.49C2692.97 1690.32 2687.08 1691.22 2680.79 1691.22C2678.13 1691.22 2675.35 1691.03 2672.46 1690.66C2669.57 1690.32 2666.7 1689.79 2663.81 1689.1L2650.36 1669.57C2654.95 1671.67 2659.25 1673.18 2663.15 1674.16C2667.07 1675.2 2670.76 1675.67 2674.24 1675.67C2686.44 1675.67 2695.96 1672.12 2702.81 1665.04C2709.68 1657.9 2713.1 1647.98 2713.1 1635.27C2713.1 1623.04 2709.68 1613.04 2702.89 1605.19C2696.07 1597.33 2687.47 1593.41 2676.99 1593.41C2672.56 1593.41 2668.37 1594.2 2664.34 1595.74C2660.36 1597.31 2656.78 1599.54 2653.59 1602.51C2650.33 1605.45 2648.05 1609.22 2646.72 1613.68C2645.4 1618.16 2644.71 1625.72 2644.71 1636.38V1715.33C2644.71 1720.06 2645.32 1724.01 2646.54 1727.19C2647.78 1730.37 2649.72 1733.13 2652.37 1735.52H2615.84Z" fill="#00679A"/>
<path fill-rule="evenodd" clip-rule="evenodd" d="M2479.59 1635.51C2479.59 1627.36 2481.12 1619.7 2484.2 1612.59C2487.28 1605.43 2491.74 1599.06 2497.71 1593.41C2503.38 1588.1 2510.07 1583.94 2517.68 1580.97C2525.3 1578.02 2533.2 1576.54 2541.43 1576.54C2549.97 1576.54 2557.66 1577.92 2564.51 1580.62C2571.41 1583.41 2577.64 1587.57 2583.21 1593.17C2588.65 1598.66 2592.87 1604.84 2595.76 1611.66C2598.63 1618.53 2600.06 1625.69 2600.06 1633.15C2600.06 1641.37 2598.55 1649.06 2595.52 1656.2C2592.5 1663.36 2588.01 1669.7 2582.07 1675.28C2576.45 1680.5 2569.81 1684.59 2562.2 1687.5C2554.59 1690.42 2546.65 1691.91 2538.46 1691.91C2529.75 1691.91 2522.03 1690.58 2515.24 1687.93C2508.42 1685.22 2502.22 1681.11 2496.56 1675.46C2491.1 1670 2486.91 1663.79 2483.99 1656.89C2481.07 1649.94 2479.59 1642.83 2479.59 1635.51ZM2503.46 1630.97C2503.46 1644.42 2506.91 1655.33 2513.84 1663.63C2520.79 1671.96 2529.75 1676.12 2540.87 1676.12C2551.32 1676.12 2559.86 1672.41 2566.5 1664.98C2573.13 1657.53 2576.42 1647.95 2576.42 1636.15C2576.42 1623.49 2572.89 1613.07 2565.81 1604.84C2558.75 1596.62 2549.78 1592.53 2538.91 1592.53C2528.67 1592.53 2520.2 1596.17 2513.52 1603.49C2506.81 1610.76 2503.46 1619.94 2503.46 1630.97Z" fill="#00679A"/>
<path d="M2459.71 1534.01C2456.4 1536.9 2454.04 1540.19 2452.68 1543.91C2451.3 1547.59 2450.64 1553.35 2450.64 1561.12V1691.78C2445.2 1691.64 2440.08 1689.89 2435.23 1686.55C2430.43 1683.21 2424.32 1676.89 2417 1667.58L2337.33 1567.22V1660.9C2337.33 1668.96 2338.02 1674.85 2339.35 1678.46C2340.68 1682.09 2342.96 1685.36 2346.22 1688.22H2311.28C2314.52 1685.28 2316.85 1681.93 2318.23 1678.19C2319.64 1674.43 2320.35 1668.67 2320.35 1660.9V1561.12C2320.35 1553.35 2319.64 1547.59 2318.23 1543.91C2316.85 1540.19 2314.52 1536.9 2311.28 1534.01H2342.59L2433.87 1649.81V1561.12C2433.87 1553.35 2433.16 1547.59 2431.75 1543.91C2430.35 1540.19 2428.04 1536.9 2424.77 1534.01H2459.71Z" fill="#00679A"/>
<path d="M2141.2 1668.03C2141.2 1672.75 2141.81 1676.71 2143.03 1679.89C2144.27 1683.07 2146.21 1685.89 2148.86 1688.22H2112.55C2115.28 1685.89 2117.27 1683.07 2118.43 1679.89C2119.6 1676.71 2120.21 1672.75 2120.21 1668.03V1552.66C2120.21 1547.89 2119.6 1543.96 2118.43 1540.78C2117.27 1537.59 2115.28 1534.81 2112.55 1532.42H2114.56C2117.75 1532.42 2121.51 1532.21 2125.81 1531.73C2130.13 1531.33 2135.15 1530.64 2140.75 1529.77V1594.95C2146.32 1589.06 2151.89 1584.68 2157.54 1581.92C2163.16 1579.16 2169.13 1577.76 2175.5 1577.76C2187.49 1577.76 2197.25 1581.39 2204.76 1588.71C2212.27 1595.98 2216.01 1605.53 2216.01 1617.28V1668.03C2216.01 1672.75 2216.62 1676.71 2217.82 1679.89C2218.98 1683.07 2220.95 1685.89 2223.68 1688.22H2187.04C2189.75 1685.89 2191.74 1683.07 2192.98 1679.89C2194.2 1676.71 2194.79 1672.75 2194.79 1668.03V1629.38C2194.79 1617.55 2192.69 1608.9 2188.42 1603.52C2184.15 1598.1 2177.41 1595.42 2168.15 1595.42C2158.57 1595.42 2151.68 1597.86 2147.46 1602.85C2143.29 1607.81 2141.2 1616.12 2141.2 1627.71V1668.03Z" fill="#00679A"/>
<path d="M2068.13 1673.68C2062.56 1679.57 2056.99 1683.95 2051.34 1686.79C2045.74 1689.6 2039.75 1690.98 2033.38 1690.98C2021.49 1690.98 2011.73 1687.32 2004.2 1679.92C1996.66 1672.57 1992.87 1662.99 1992.87 1651.13V1600.73C1992.87 1595.9 1992.26 1591.9 1991.06 1588.63C1989.79 1585.37 1987.85 1582.53 1985.2 1580.17H1988.33C1992.6 1580.17 1996.93 1579.98 2001.2 1579.56C2005.5 1579.16 2009.77 1578.55 2013.99 1577.76L2014.09 1639.33C2014.09 1651.05 2016.22 1659.57 2020.43 1664.96C2024.63 1670.29 2031.36 1672.99 2040.62 1672.99C2050.28 1672.99 2057.23 1670.53 2061.42 1665.57C2065.59 1660.6 2067.68 1652.3 2067.68 1640.71V1600.73C2067.68 1595.9 2067.07 1591.9 2065.88 1588.63C2064.61 1585.37 2062.64 1582.53 2059.91 1580.17H2062.67C2066.62 1580.17 2070.71 1579.98 2074.95 1579.56C2079.2 1579.16 2083.79 1578.55 2088.69 1577.76V1665.22C2088.69 1669.97 2089.28 1673.95 2090.47 1677.13C2091.64 1680.32 2093.6 1683.07 2096.34 1685.46H2094.32C2091.08 1685.46 2087.5 1685.67 2083.57 1686.1C2079.65 1686.55 2074.87 1687.27 2069.25 1688.22L2068.13 1673.68Z" fill="#00679A"/>
<path d="M1961.8 1668.03C1961.8 1672.75 1962.39 1676.71 1963.61 1679.89C1964.85 1683.07 1966.79 1685.83 1969.44 1688.22H1933.36C1936.1 1685.83 1938.06 1683.07 1939.25 1679.89C1940.42 1676.71 1941.03 1672.75 1941.03 1668.03V1552.63C1941.03 1547.89 1940.42 1543.96 1939.25 1540.78C1938.06 1537.59 1936.1 1534.81 1933.36 1532.42H1935.8C1938.19 1532.42 1941.11 1532.29 1944.51 1531.94C1947.95 1531.6 1953.71 1530.88 1961.8 1529.77V1668.03Z" fill="#00679A"/>
<path d="M1888.71 1673.68C1883.14 1679.57 1877.57 1683.95 1871.92 1686.79C1866.32 1689.6 1860.33 1690.98 1853.96 1690.98C1842.07 1690.98 1832.34 1687.32 1824.78 1679.92C1817.24 1672.57 1813.45 1662.99 1813.45 1651.13V1600.73C1813.45 1595.9 1812.84 1591.9 1811.64 1588.63C1810.37 1585.37 1808.46 1582.53 1805.81 1580.17H1808.91C1813.18 1580.17 1817.51 1579.98 1821.78 1579.56C1826.08 1579.16 1830.35 1578.55 1834.57 1577.76L1834.67 1639.33C1834.67 1651.05 1836.79 1659.57 1841.01 1664.96C1845.2 1670.29 1851.97 1672.99 1861.2 1672.99C1870.86 1672.99 1877.81 1670.53 1882 1665.57C1886.19 1660.6 1888.26 1652.3 1888.26 1640.71V1600.73C1888.26 1595.9 1887.65 1591.9 1886.46 1588.63C1885.18 1585.37 1883.22 1582.53 1880.49 1580.17H1883.27C1887.2 1580.17 1891.29 1579.98 1895.53 1579.56C1899.78 1579.16 1904.37 1578.55 1909.27 1577.76V1665.22C1909.27 1669.97 1909.86 1673.95 1911.05 1677.13C1912.22 1680.32 1914.18 1683.07 1916.91 1685.46H1914.9C1911.66 1685.46 1908.08 1685.67 1904.15 1686.1C1900.25 1686.55 1895.48 1687.27 1889.83 1688.22L1888.71 1673.68Z" fill="#00679A"/>
<path d="M1669.36 1735.52C1672.07 1733.13 1674.06 1730.37 1675.23 1727.19C1676.39 1724.01 1677 1720.06 1677 1715.33V1600.73C1677 1595.9 1676.39 1591.9 1675.2 1588.63C1673.93 1585.37 1672.02 1582.56 1669.36 1580.17H1672.23C1676.26 1580.17 1680.27 1579.98 1684.35 1579.56C1688.41 1579.16 1692.58 1578.55 1696.8 1577.76L1697.78 1594.95C1703.35 1588.9 1709.42 1584.34 1716.06 1581.31C1722.69 1578.29 1729.77 1576.77 1737.31 1576.77C1752.24 1576.77 1764.87 1582.03 1775.09 1592.56C1785.38 1603.14 1790.47 1616.14 1790.47 1631.61C1790.47 1641.77 1788.51 1651 1784.53 1659.41C1780.58 1667.79 1774.9 1674.77 1767.52 1680.24C1762.62 1683.95 1757.44 1686.68 1751.98 1688.49C1746.49 1690.32 1740.6 1691.22 1734.31 1691.22C1731.66 1691.22 1728.87 1691.03 1725.98 1690.66C1723.09 1690.32 1720.22 1689.79 1717.33 1689.1L1703.88 1669.57C1708.47 1671.67 1712.74 1673.18 1716.67 1674.16C1720.59 1675.2 1724.28 1675.67 1727.76 1675.67C1739.96 1675.67 1749.48 1672.12 1756.33 1665.04C1763.2 1657.9 1766.6 1647.98 1766.6 1635.27C1766.6 1623.04 1763.2 1613.04 1756.41 1605.19C1749.59 1597.33 1740.99 1593.41 1730.52 1593.41C1726.08 1593.41 1721.89 1594.2 1717.86 1595.74C1713.88 1597.31 1710.27 1599.54 1707.12 1602.51C1703.85 1605.45 1701.57 1609.22 1700.24 1613.68C1698.92 1618.16 1698.23 1625.72 1698.23 1636.38V1715.33C1698.23 1720.06 1698.84 1724.01 1700.06 1727.19C1701.31 1730.37 1703.24 1733.13 1705.9 1735.52H1669.36Z" fill="#00679A"/>
<path fill-rule="evenodd" clip-rule="evenodd" d="M1569.08 1631.61C1569.61 1645.06 1573.86 1655.78 1581.87 1663.74C1589.91 1671.69 1600.41 1675.67 1613.39 1675.67C1619.14 1675.67 1625.24 1674.74 1631.64 1672.83C1638.06 1670.95 1644.98 1668.06 1652.44 1664.13L1640.45 1685.01C1634.03 1687.4 1628 1689.18 1622.46 1690.34C1616.89 1691.51 1611.71 1692.12 1606.81 1692.12C1588.82 1692.12 1574.04 1686.68 1562.4 1675.81C1550.78 1664.93 1544.97 1651.13 1544.97 1634.37C1544.97 1617.2 1550.3 1603.12 1560.99 1592.11C1571.73 1581.13 1585.37 1575.63 1602.03 1575.63C1617.37 1575.63 1629.52 1580.62 1638.59 1590.68C1647.61 1600.73 1652.23 1614.37 1652.44 1631.61H1569.08ZM1570.62 1616.41H1628.35C1627.9 1608.79 1625.09 1602.53 1619.89 1597.68C1614.74 1592.82 1608.29 1590.41 1600.6 1590.41C1592.29 1590.41 1585.48 1592.72 1580.17 1597.33C1574.84 1601.98 1571.65 1608.34 1570.62 1616.41Z" fill="#00679A"/>
<path d="M1425.21 1684.77L1417.86 1656.81C1426.83 1662.81 1435.5 1667.24 1443.97 1670.16C1452.4 1673.07 1460.76 1674.53 1469.06 1674.53C1479.68 1674.53 1488.17 1672.28 1494.59 1667.71C1501.03 1663.18 1504.27 1657.26 1504.27 1650.02C1504.27 1647.95 1503.92 1645.88 1503.29 1643.81C1502.6 1641.77 1501.64 1639.78 1500.37 1637.92C1497.56 1633.73 1488.11 1627.71 1472.04 1619.8C1468 1617.92 1464.85 1616.41 1462.62 1615.27C1447.6 1607.73 1437.28 1600.78 1431.68 1594.42C1426.11 1588.05 1423.3 1580.49 1423.3 1571.76C1423.3 1559.27 1428.42 1549.32 1438.61 1541.94C1448.85 1534.59 1462.83 1530.91 1480.6 1530.91C1485.72 1530.91 1491.35 1531.25 1497.5 1531.89C1503.66 1532.58 1510.32 1533.59 1517.48 1534.99V1560.88C1511.11 1556.08 1504.72 1552.47 1498.27 1550.11C1491.83 1547.73 1485.11 1546.56 1478.19 1546.56C1469.36 1546.56 1462.27 1548.44 1456.89 1552.21C1451.55 1556 1448.85 1560.94 1448.85 1566.99C1448.85 1572.4 1450.97 1577.17 1455.19 1581.31C1459.38 1585.45 1468.85 1591.02 1483.6 1597.94L1487.4 1599.72C1499.84 1605.45 1509.12 1610.68 1515.25 1615.51C1519.84 1619.06 1523.45 1623.39 1525.97 1628.51C1528.52 1633.63 1529.82 1639.04 1529.82 1644.79C1529.82 1658.06 1523.74 1669.28 1511.59 1678.49C1499.44 1687.69 1484.29 1692.31 1466.07 1692.31C1460.23 1692.31 1453.94 1691.67 1447.18 1690.42C1440.44 1689.18 1433.12 1687.27 1425.21 1684.77Z" fill="#00679A"/>
<path d="M2329.21 1359.9C2329.21 1356.16 2330.54 1352.93 2333.19 1350.27C2335.87 1347.6 2339.11 1346.27 2342.85 1346.27C2346.56 1346.27 2349.72 1347.6 2352.3 1350.27C2354.9 1352.93 2356.2 1356.16 2356.2 1359.9C2356.2 1363.78 2354.9 1367.04 2352.37 1369.64C2349.83 1372.27 2346.64 1373.59 2342.85 1373.59C2339.03 1373.59 2335.77 1372.27 2333.14 1369.59C2330.54 1366.93 2329.21 1363.7 2329.21 1359.9Z" fill="#00679A"/>
<path d="M2354.18 1476.63C2354.18 1481.38 2354.79 1485.33 2356.01 1488.51C2357.26 1491.7 2359.22 1494.46 2361.95 1496.84H2325.77C2328.5 1494.46 2330.46 1491.7 2331.71 1488.51C2332.93 1485.33 2333.54 1481.38 2333.54 1476.63V1409.33C2333.54 1404.53 2332.88 1400.49 2331.63 1397.26C2330.38 1393.99 2328.42 1391.18 2325.77 1388.79C2332.13 1388.63 2337.62 1388.37 2342.21 1387.94C2346.8 1387.57 2350.78 1387.02 2354.18 1386.35V1476.63Z" fill="#00679A"/>
<path fill-rule="evenodd" clip-rule="evenodd" d="M2319.77 1383.83L2312.87 1401.16C2312.72 1401.18 2312.57 1401.19 2312.41 1401.21C2312.27 1401.23 2312.11 1401.24 2311.95 1401.25C2311.58 1401.29 2311.19 1401.31 2310.75 1401.34C2309.95 1401.37 2308.65 1401.37 2306.88 1401.37C2303.69 1401.37 2299.98 1401.24 2295.79 1400.89C2291.57 1400.55 2286.79 1400.04 2281.46 1399.38C2288.44 1403.15 2293.53 1407.36 2296.87 1411.98C2300.22 1416.62 2301.89 1421.93 2301.89 1427.9C2301.89 1434.87 2299.77 1441.05 2295.52 1446.52C2291.22 1451.93 2285.17 1456.2 2277.24 1459.33C2270.8 1461.93 2263.87 1463.63 2256.47 1464.43L2256.24 1464.46L2256.23 1464.46C2255.92 1464.5 2255.68 1464.53 2255.51 1464.55C2255.41 1464.55 2255.34 1464.56 2255.28 1464.56L2254.59 1464.67C2246.52 1465.75 2242.49 1467.95 2242.49 1471.22C2242.49 1472.86 2243.1 1473.98 2244.32 1474.72C2245.57 1475.38 2247.61 1475.78 2250.5 1475.78C2252.83 1475.78 2255.91 1475.65 2259.65 1475.46C2263.37 1475.28 2265.91 1475.2 2267.24 1475.2C2282.79 1475.2 2295.36 1478.3 2304.94 1484.54C2314.54 1490.74 2319.32 1498.7 2319.32 1508.41C2319.32 1520.75 2313.11 1530.91 2300.69 1538.84C2288.31 1546.74 2272.25 1550.7 2252.49 1550.7C2234.58 1550.7 2219.78 1547.54 2208.11 1541.23C2196.49 1534.89 2190.65 1527.03 2190.65 1517.72C2190.65 1512.39 2192.72 1507.93 2196.86 1504.43C2201 1500.85 2206.22 1499.07 2212.51 1499.07C2214 1499.07 2215.67 1499.26 2217.55 1499.68C2219.46 1500.11 2221.69 1500.74 2224.26 1501.62C2221.08 1502.07 2218.69 1503.29 2217.02 1505.28C2215.35 1507.3 2214.53 1510.03 2214.53 1513.5C2214.53 1520.08 2218.53 1525.79 2226.57 1530.62C2234.61 1535.42 2244.45 1537.8 2256.12 1537.8C2267.77 1537.8 2277.51 1535.15 2285.36 1529.9C2293.21 1524.59 2297.11 1518.23 2297.11 1510.75C2297.11 1503.56 2293.74 1498.09 2286.98 1494.3C2280.27 1490.56 2270.5 1488.65 2257.69 1488.65C2256.66 1488.65 2253.71 1488.73 2248.83 1488.89C2243.92 1489.05 2239.57 1489.1 2235.7 1489.1C2229.81 1489.1 2225.24 1488.04 2222.06 1485.91C2218.88 1483.79 2217.28 1480.82 2217.28 1476.87C2217.28 1473.18 2218.85 1470 2221.93 1467.4C2224.98 1464.74 2229.49 1462.78 2235.48 1461.46C2225.35 1459.28 2217.34 1454.88 2211.37 1448.22C2205.45 1441.56 2202.51 1433.73 2202.51 1424.79C2202.51 1412.67 2207.31 1403.01 2216.94 1395.88C2226.57 1388.71 2239.76 1385.16 2256.6 1385.16C2260.79 1385.16 2266.95 1385.35 2274.96 1385.77C2283 1386.17 2288.92 1386.38 2292.79 1386.38C2296.05 1386.38 2299.85 1386.17 2304.22 1385.77C2308.6 1385.35 2313.77 1384.71 2319.77 1383.83ZM2278.91 1426.57C2278.91 1418.88 2276.15 1412.43 2270.66 1407.26C2265.12 1402.06 2258.25 1399.48 2250.02 1399.48C2242.33 1399.48 2236.2 1401.61 2231.61 1405.85C2227.02 1410.12 2224.71 1415.75 2224.71 1422.67C2224.71 1430.55 2227.53 1437.1 2233.18 1442.46C2238.77 1447.79 2245.67 1450.45 2253.82 1450.45C2261.06 1450.45 2267.05 1448.19 2271.78 1443.65C2276.53 1439.17 2278.91 1433.47 2278.91 1426.57Z" fill="#00679A"/>
<path fill-rule="evenodd" clip-rule="evenodd" d="M2066.94 1444.13C2066.94 1435.99 2068.48 1428.32 2071.56 1421.19C2074.63 1414.02 2079.09 1407.66 2085.06 1402C2090.74 1396.73 2097.4 1392.53 2105.04 1389.59C2112.65 1386.64 2120.56 1385.16 2128.78 1385.16C2137.32 1385.16 2145.02 1386.51 2151.86 1389.24C2158.76 1392 2164.99 1396.2 2170.57 1401.79C2176 1407.28 2180.22 1413.47 2183.09 1420.28C2185.98 1427.15 2187.41 1434.32 2187.41 1441.77C2187.41 1450 2185.9 1457.69 2182.88 1464.82C2179.85 1471.99 2175.37 1478.3 2169.43 1483.87C2163.8 1489.1 2157.17 1493.21 2149.55 1496.13C2141.94 1499.05 2134.03 1500.51 2125.78 1500.51C2117.11 1500.51 2109.39 1499.18 2102.6 1496.53C2095.78 1493.85 2089.57 1489.71 2083.92 1484.06C2078.45 1478.62 2074.26 1472.39 2071.34 1465.49C2068.43 1458.56 2066.94 1451.43 2066.94 1444.13ZM2090.82 1439.57C2090.82 1453.02 2094.27 1463.95 2101.19 1472.25C2108.14 1480.58 2117.11 1484.75 2128.22 1484.75C2138.68 1484.75 2147.22 1481.03 2153.85 1473.61C2160.48 1466.15 2163.77 1456.55 2163.77 1444.77C2163.77 1432.11 2160.25 1421.69 2153.16 1413.47C2146.11 1405.24 2137.14 1401.16 2126.26 1401.16C2116.02 1401.16 2107.56 1404.79 2100.85 1412.09C2094.16 1419.38 2090.82 1428.56 2090.82 1439.57Z" fill="#00679A"/>
<path d="M2044.2 1476.63C2044.2 1481.38 2044.81 1485.33 2046.01 1488.51C2047.28 1491.7 2049.19 1494.46 2051.84 1496.84H2015.76C2018.5 1494.46 2020.46 1491.7 2021.65 1488.51C2022.82 1485.33 2023.43 1481.38 2023.43 1476.63V1361.23C2023.43 1356.51 2022.82 1352.56 2021.65 1349.37C2020.46 1346.19 2018.5 1343.43 2015.76 1341.04H2018.21C2020.59 1341.04 2023.51 1340.88 2026.91 1340.54C2030.36 1340.19 2036.14 1339.48 2044.2 1338.39V1476.63Z" fill="#00679A"/>
<path fill-rule="evenodd" clip-rule="evenodd" d="M1879.29 1444.13C1879.29 1435.99 1880.83 1428.32 1883.91 1421.19C1886.99 1414.02 1891.45 1407.66 1897.41 1402C1903.09 1396.73 1909.75 1392.53 1917.39 1389.59C1925.01 1386.64 1932.91 1385.16 1941.14 1385.16C1949.68 1385.16 1957.37 1386.51 1964.22 1389.24C1971.11 1392 1977.35 1396.2 1982.92 1401.79C1988.36 1407.28 1992.58 1413.47 1995.47 1420.28C1998.33 1427.15 1999.77 1434.32 1999.77 1441.77C1999.77 1450 1998.25 1457.69 1995.23 1464.82C1992.21 1471.99 1987.72 1478.3 1981.78 1483.87C1976.16 1489.1 1969.52 1493.21 1961.91 1496.13C1954.29 1499.05 1946.39 1500.51 1938.14 1500.51C1929.46 1500.51 1921.74 1499.18 1914.95 1496.53C1908.13 1493.85 1901.92 1489.71 1896.27 1484.06C1890.81 1478.62 1886.62 1472.39 1883.7 1465.49C1880.78 1458.56 1879.29 1451.43 1879.29 1444.13ZM1903.17 1439.57C1903.17 1453.02 1906.62 1463.95 1913.54 1472.25C1920.5 1480.58 1929.46 1484.75 1940.58 1484.75C1951.03 1484.75 1959.57 1481.03 1966.21 1473.61C1972.84 1466.15 1976.13 1456.55 1976.13 1444.77C1976.13 1432.11 1972.6 1421.69 1965.52 1413.47C1958.46 1405.24 1949.49 1401.16 1938.62 1401.16C1928.37 1401.16 1919.91 1404.79 1913.2 1412.09C1906.51 1419.38 1903.17 1428.56 1903.17 1439.57Z" fill="#00679A"/>
<path d="M1781.74 1476.63C1781.74 1481.38 1782.35 1485.33 1783.55 1488.51C1784.82 1491.7 1786.73 1494.48 1789.39 1496.84H1753.09C1755.82 1494.48 1757.79 1491.7 1758.96 1488.51C1760.12 1485.33 1760.73 1481.38 1760.73 1476.63V1409.38C1760.73 1404.55 1760.12 1400.49 1758.93 1397.26C1757.68 1393.99 1755.75 1391.18 1753.09 1388.79H1755.51C1759.14 1388.79 1762.99 1388.61 1767.02 1388.18C1771.05 1387.76 1775.48 1387.15 1780.31 1386.35L1781.29 1403.57C1786.86 1397.65 1792.44 1393.3 1798.09 1390.54C1803.68 1387.76 1809.68 1386.35 1816.05 1386.35C1828.01 1386.35 1837.8 1390.01 1845.31 1397.31C1852.79 1404.6 1856.56 1414.16 1856.56 1425.91V1476.63C1856.56 1481.38 1857.17 1485.33 1858.34 1488.51C1859.5 1491.7 1861.49 1494.48 1864.2 1496.84H1827.56C1830.29 1494.48 1832.26 1491.7 1833.5 1488.51C1834.72 1485.33 1835.33 1481.38 1835.33 1476.63V1437.98C1835.33 1426.23 1833.21 1417.68 1828.97 1412.3C1824.67 1406.94 1817.93 1404.26 1808.7 1404.26C1799.1 1404.26 1792.2 1406.73 1787.98 1411.63C1783.81 1416.57 1781.74 1424.79 1781.74 1436.36V1476.63Z" fill="#00679A"/>
<path d="M1642.14 1496.84C1644.88 1494.46 1646.84 1491.7 1648.03 1488.51C1649.2 1485.33 1649.81 1481.38 1649.81 1476.63V1361.23C1649.81 1356.51 1649.2 1352.56 1648.03 1349.37C1646.84 1346.19 1644.88 1343.43 1642.14 1341.04H1644.16C1647.26 1341.04 1650.82 1340.86 1654.85 1340.43C1658.91 1340.01 1664.22 1339.34 1670.8 1338.39V1476.63C1670.8 1481.38 1671.41 1485.33 1672.63 1488.51C1673.87 1491.7 1675.81 1494.46 1678.46 1496.84H1642.14Z" fill="#00679A"/>
<path d="M1702.53 1388.79H1735.85L1698.55 1434.53L1733.94 1480.16C1734.92 1481.54 1738.58 1485.33 1744.95 1491.62L1750.17 1496.84H1728.29C1724.81 1496.84 1721.71 1495.94 1718.97 1494.11C1716.24 1492.28 1712.98 1488.81 1709.19 1483.61L1675.57 1436.55L1698.55 1410.44C1700.78 1407.79 1702.53 1405.24 1703.8 1402.77C1705.1 1400.36 1705.76 1398.34 1705.76 1396.78C1705.76 1395.69 1705.52 1394.44 1704.99 1393.12C1704.46 1391.79 1703.67 1390.36 1702.53 1388.79Z" fill="#00679A"/>
<path fill-rule="evenodd" clip-rule="evenodd" d="M1541.86 1440.23C1542.39 1453.68 1546.64 1464.4 1554.68 1472.36C1562.71 1480.32 1573.22 1484.3 1586.17 1484.3C1591.95 1484.3 1598.03 1483.34 1604.45 1481.46C1610.84 1479.55 1617.79 1476.68 1625.24 1472.73L1613.23 1493.61C1606.83 1496 1600.81 1497.8 1595.27 1498.97C1589.69 1500.13 1584.5 1500.74 1579.61 1500.74C1561.63 1500.74 1546.82 1495.28 1535.2 1484.4C1523.56 1473.53 1517.77 1459.73 1517.77 1442.99C1517.77 1425.83 1523.11 1411.71 1533.8 1400.73C1544.51 1389.75 1558.18 1384.23 1574.84 1384.23C1590.15 1384.23 1602.32 1389.24 1611.37 1399.3C1620.39 1409.33 1625.03 1422.99 1625.24 1440.23H1541.86ZM1543.43 1425.03H1601.16C1600.68 1417.42 1597.89 1411.16 1592.69 1406.3C1587.55 1401.45 1581.1 1399.03 1573.41 1399.03C1565.1 1399.03 1558.28 1401.34 1552.98 1405.96C1547.62 1410.57 1544.44 1416.94 1543.43 1425.03Z" fill="#00679A"/>
<path d="M1488.54 1469.52C1488.54 1477.29 1489.25 1483.05 1490.66 1486.79C1492.07 1490.5 1494.37 1493.87 1497.64 1496.84H1455.35C1458.66 1493.87 1461.03 1490.5 1462.4 1486.79C1463.76 1483.05 1464.45 1477.29 1464.45 1469.52V1359.51H1452.01C1443.41 1359.51 1436.46 1360.17 1431.13 1361.5C1425.77 1362.82 1421.55 1365 1418.37 1367.94L1426.01 1342.63H1536.29L1529.05 1367.49C1526.79 1364.76 1523.74 1362.72 1520.03 1361.42C1516.29 1360.14 1511.54 1359.51 1505.86 1359.51H1488.54V1469.52Z" fill="#00679A"/>
<path d="M2071.66 1213.18H2056.89V1205.16C2065.77 1204.37 2072.75 1200.28 2077.84 1192.91C2082.88 1185.53 2085.59 1175.53 2085.99 1162.88H2092.54V1197.42H2124.64V1217.61C2122.87 1216.07 2120.69 1214.93 2118.17 1214.24C2115.6 1213.52 2112.25 1213.18 2108.09 1213.18H2092.54V1265.7C2092.54 1275.33 2094.13 1282.39 2097.34 1286.87C2100.58 1291.38 2105.59 1293.66 2112.33 1293.66C2113.87 1293.58 2115.52 1293.45 2117.21 1293.19C2118.91 1292.92 2120.64 1292.57 2122.28 1292.12L2111.4 1307.99H2110.87C2107.9 1308.31 2105.78 1308.44 2104.45 1308.44C2093.52 1308.44 2085.35 1305.71 2079.89 1300.22C2074.4 1294.78 2071.66 1286.66 2071.66 1275.89V1213.18Z" fill="#00679A"/>
<path d="M2017.28 1290.9C2011.71 1296.82 2006.13 1301.17 2000.48 1304.01C1994.89 1306.82 1988.89 1308.23 1982.52 1308.23C1970.61 1308.23 1960.87 1304.54 1953.34 1297.16C1945.81 1289.79 1942.01 1280.21 1942.01 1268.35V1217.95C1942.01 1213.12 1941.4 1209.12 1940.18 1205.85C1938.93 1202.59 1937 1199.75 1934.34 1197.42H1937.45C1941.75 1197.42 1946.07 1197.2 1950.34 1196.81C1954.61 1196.38 1958.91 1195.77 1963.1 1194.98L1963.24 1256.58C1963.24 1268.27 1965.36 1276.79 1969.55 1282.18C1973.77 1287.53 1980.51 1290.21 1989.77 1290.21C1999.42 1290.21 2006.35 1287.75 2010.56 1282.79C2014.73 1277.83 2016.83 1269.52 2016.83 1257.93V1217.95C2016.83 1213.12 2016.22 1209.12 2014.99 1205.85C2013.75 1202.59 2011.78 1199.75 2009.05 1197.42H2011.81C2015.76 1197.42 2019.85 1197.2 2024.09 1196.81C2028.34 1196.38 2032.93 1195.77 2037.81 1194.98V1282.44C2037.81 1287.19 2038.42 1291.17 2039.59 1294.35C2040.78 1297.54 2042.75 1300.29 2045.48 1302.68H2043.46C2040.2 1302.68 2036.64 1302.92 2032.69 1303.32C2028.79 1303.8 2024.02 1304.51 2018.36 1305.44L2017.28 1290.9Z" fill="#00679A"/>
<path d="M1866.27 1213.18H1851.49V1205.16C1860.41 1204.37 1867.38 1200.28 1872.45 1192.91C1877.49 1185.53 1880.22 1175.53 1880.59 1162.88H1887.17V1197.42H1919.28V1217.61C1917.47 1216.07 1915.32 1214.93 1912.78 1214.24C1910.2 1213.52 1906.86 1213.18 1902.69 1213.18H1887.17V1265.7C1887.17 1275.33 1888.77 1282.39 1891.98 1286.87C1895.19 1291.38 1900.2 1293.66 1906.94 1293.66C1908.5 1293.58 1910.12 1293.45 1911.85 1293.19C1913.54 1292.92 1915.24 1292.57 1916.91 1292.12L1906.04 1307.99H1905.51C1902.51 1308.31 1900.39 1308.44 1899.06 1308.44C1888.16 1308.44 1879.96 1305.71 1874.49 1300.22C1869 1294.78 1866.27 1286.66 1866.27 1275.89V1213.18Z" fill="#00679A"/>
<path d="M1806.26 1168.53C1806.26 1164.79 1807.58 1161.55 1810.24 1158.9C1812.92 1156.22 1816.13 1154.89 1819.89 1154.89C1823.61 1154.89 1826.74 1156.22 1829.34 1158.9C1831.94 1161.55 1833.24 1164.79 1833.24 1168.53C1833.24 1172.4 1831.94 1175.66 1829.39 1178.26C1826.87 1180.89 1823.69 1182.22 1819.89 1182.22C1816.07 1182.22 1812.81 1180.89 1810.18 1178.18C1807.58 1175.53 1806.26 1172.32 1806.26 1168.53Z" fill="#00679A"/>
<path d="M1831.22 1285.25C1831.22 1290 1831.83 1293.93 1833.05 1297.11C1834.3 1300.29 1836.26 1303.08 1839 1305.44H1802.81C1805.52 1303.08 1807.5 1300.29 1808.75 1297.11C1809.95 1293.93 1810.56 1290 1810.56 1285.25V1217.95C1810.56 1213.12 1809.92 1209.12 1808.67 1205.85C1807.43 1202.59 1805.46 1199.8 1802.81 1197.42C1809.18 1197.26 1814.67 1196.99 1819.26 1196.57C1823.82 1196.2 1827.8 1195.61 1831.22 1194.98V1285.25Z" fill="#00679A"/>
<path d="M1733.41 1213.18H1718.63V1205.16C1727.52 1204.37 1734.49 1200.28 1739.59 1192.91C1744.63 1185.53 1747.36 1175.53 1747.73 1162.88H1754.29V1197.42H1786.39V1217.61C1784.61 1216.07 1782.46 1214.93 1779.91 1214.24C1777.34 1213.52 1774 1213.18 1769.83 1213.18H1754.29V1265.7C1754.29 1275.33 1755.88 1282.39 1759.09 1286.87C1762.32 1291.38 1767.31 1293.66 1774.08 1293.66C1775.62 1293.58 1777.26 1293.45 1778.96 1293.19C1780.66 1292.92 1782.38 1292.57 1784.03 1292.12L1773.15 1307.99H1772.62C1769.65 1308.31 1767.52 1308.44 1766.2 1308.44C1755.27 1308.44 1747.1 1305.71 1741.63 1300.22C1736.14 1294.78 1733.41 1286.66 1733.41 1275.89V1213.18Z" fill="#00679A"/>
<path d="M1623.6 1303.21L1614.74 1278.59C1623.12 1284.19 1630.84 1288.41 1637.93 1291.12C1645.06 1293.85 1651.8 1295.23 1658.17 1295.23C1666.1 1295.23 1672.42 1293.66 1677.19 1290.59C1681.97 1287.53 1684.35 1283.48 1684.35 1278.36C1684.35 1271.99 1676.24 1265.6 1660.03 1259.15C1656.1 1257.64 1653.05 1256.34 1650.93 1255.38C1641.38 1251.38 1634.45 1246.95 1630.07 1242.04C1625.78 1237.16 1623.6 1231.4 1623.6 1224.74C1623.6 1215.19 1627.39 1207.6 1634.93 1201.98C1642.49 1196.36 1652.84 1193.54 1665.94 1193.54C1670.16 1193.54 1674.78 1193.84 1679.82 1194.5C1684.86 1195.14 1690.11 1196.01 1695.68 1197.2V1216.54C1690.06 1213.73 1684.59 1211.58 1679.23 1210.1C1673.9 1208.61 1668.78 1207.87 1663.82 1207.87C1658.17 1207.87 1653.71 1209.09 1650.37 1211.48C1647.03 1213.89 1645.35 1217.07 1645.35 1221.08C1645.35 1226.78 1652.12 1232.09 1665.6 1236.97C1671.35 1239.01 1675.94 1240.79 1679.37 1242.28C1689 1246.36 1696.03 1250.85 1700.54 1255.73C1705.05 1260.63 1707.33 1266.26 1707.33 1272.71C1707.33 1283.82 1702.55 1292.71 1693 1299.47C1683.45 1306.18 1670.61 1309.55 1654.45 1309.55C1648.62 1309.55 1643.21 1309.02 1638.16 1307.99C1633.12 1306.98 1628.27 1305.39 1623.6 1303.21Z" fill="#00679A"/>
<path d="M1519.71 1285.25C1519.71 1290 1520.32 1293.93 1521.54 1297.11C1522.79 1300.29 1524.72 1303.11 1527.38 1305.44H1491.06C1493.79 1303.11 1495.78 1300.29 1496.95 1297.11C1498.11 1293.93 1498.72 1290 1498.72 1285.25V1217.98C1498.72 1213.18 1498.11 1209.12 1496.89 1205.85C1495.65 1202.59 1493.71 1199.8 1491.06 1197.42H1493.5C1497.13 1197.42 1500.95 1197.2 1505.01 1196.81C1509.04 1196.38 1513.47 1195.77 1518.28 1194.98L1519.26 1212.19C1524.83 1206.28 1530.4 1201.93 1536.05 1199.14C1541.68 1196.38 1547.65 1194.98 1554.01 1194.98C1566 1194.98 1575.77 1198.61 1583.27 1205.93C1590.78 1213.2 1594.52 1222.75 1594.52 1234.5V1285.25C1594.52 1290 1595.13 1293.93 1596.33 1297.11C1597.49 1300.29 1599.46 1303.11 1602.19 1305.44H1565.55C1568.29 1303.11 1570.25 1300.29 1571.5 1297.11C1572.72 1293.93 1573.3 1290 1573.3 1285.25V1246.6C1573.3 1234.85 1571.2 1226.28 1566.96 1220.89C1562.66 1215.56 1555.92 1212.86 1546.66 1212.86C1537.09 1212.86 1530.19 1215.32 1525.97 1220.26C1521.81 1225.19 1519.71 1233.42 1519.71 1244.96V1285.25Z" fill="#00679A"/>
<path d="M1460.63 1278.14C1460.63 1285.89 1461.32 1291.67 1462.7 1295.41C1464.05 1299.15 1466.38 1302.5 1469.73 1305.44H1427.44C1430.78 1302.5 1433.12 1299.15 1434.5 1295.41C1435.85 1291.67 1436.54 1285.89 1436.54 1278.14V1178.34C1436.54 1170.57 1435.85 1164.81 1434.5 1161.13C1433.12 1157.41 1430.78 1154.12 1427.44 1151.26H1469.73C1466.38 1154.12 1464.05 1157.41 1462.7 1161.13C1461.32 1164.81 1460.63 1170.57 1460.63 1178.34V1278.14Z" fill="#00679A"/>
</svg>
