<svg width="881" height="185" viewBox="0 0 881 185" fill="none" xmlns="http://www.w3.org/2000/svg">
<path d="M374.435 44.0987C375.557 45.3615 376.259 46.905 376.119 48.5887V134.46C376.119 136.284 375.417 138.108 374.154 139.371C372.892 140.774 371.067 141.476 369.243 141.336C368.261 141.336 367.139 141.195 366.157 140.915C365.315 140.634 364.473 140.073 363.771 139.371L308.348 66.9697V135.302C308.348 136.986 307.786 138.529 306.523 139.792C305.401 140.915 303.717 141.616 302.033 141.616C300.35 141.616 298.806 141.055 297.684 139.792C296.561 138.529 296 136.986 296 135.302V49.15C296 47.3259 296.702 45.5019 297.964 44.239C299.227 42.9762 300.911 42.2747 302.735 42.2747C303.858 42.2747 304.98 42.415 305.962 42.8359C306.944 43.2568 307.786 43.8181 308.348 44.66L363.771 117.342V48.5887C363.771 46.905 364.332 45.3615 365.595 44.0987C366.718 42.9762 368.401 42.2747 370.085 42.2747C371.629 42.2747 373.312 42.9762 374.435 44.0987ZM488.79 44.0987C490.053 45.5018 490.614 47.1856 490.614 49.0097V103.311C490.754 110.326 489.071 117.342 485.703 123.376C482.476 129.128 477.846 134.039 472.093 137.267C466.059 140.634 459.324 142.458 452.449 142.318C445.574 142.458 438.698 140.634 432.665 137.267C426.912 134.039 422.141 129.128 418.914 123.376C415.547 117.202 413.863 110.326 414.003 103.311V49.0097C414.003 47.1856 414.705 45.3615 415.968 44.0987C417.371 42.8359 419.195 41.994 421.019 42.1343C422.843 42.1343 424.527 42.8359 425.79 44.0987C427.052 45.3615 427.894 47.0453 427.754 48.8693V103.17C427.614 107.801 428.876 112.431 431.121 116.36C435.471 124.077 443.609 128.707 452.309 128.707C456.658 128.707 461.008 127.585 464.937 125.48C468.866 123.376 472.093 120.148 474.338 116.36C476.723 112.291 477.846 107.801 477.846 103.17V48.8693C477.846 47.0453 478.407 45.3615 479.529 43.9584C480.652 42.6956 482.476 41.8537 484.16 41.994C485.843 41.994 487.668 42.8359 488.79 44.0987ZM597.813 131.233C598.655 132.356 599.076 133.759 599.076 135.302C599.216 137.126 598.374 138.95 597.112 140.073C595.849 141.195 594.165 141.897 592.481 141.897C590.236 142.037 588.132 140.915 587.009 139.091L559.508 102.329L532.568 138.95C531.305 140.774 529.34 141.897 527.095 141.897C525.412 141.897 523.868 141.336 522.746 140.073C521.623 139.091 520.922 137.547 520.922 136.004C520.922 134.32 521.623 132.636 522.605 131.373L551.65 91.8051L522.465 52.5175C521.623 51.395 521.062 49.9919 521.062 48.4484C521.062 46.6244 521.764 44.9406 523.026 43.6778C524.289 42.415 525.973 41.7134 527.797 41.7134C528.92 41.7134 529.902 41.994 530.884 42.4149C531.866 42.8359 532.708 43.6778 533.41 44.5196L560.63 81.001L587.57 44.8003C588.693 42.9762 590.798 41.8537 592.902 41.7134C594.586 41.7134 596.27 42.415 597.392 43.6778C598.655 44.8003 599.357 46.3437 599.357 48.0275C599.357 49.4306 598.795 50.8338 597.954 52.0966L568.347 91.3842C568.347 91.8051 597.813 131.233 597.813 131.233ZM699.961 44.0987C701.224 45.3615 702.066 47.0453 701.925 48.8693C701.925 50.6934 701.224 52.3772 699.961 53.4997C698.558 54.6222 696.874 55.3237 695.05 55.1834H669.794V134.601C669.794 136.425 669.092 138.108 667.829 139.371C664.883 142.037 660.393 142.037 657.446 139.371C656.183 138.108 655.342 136.425 655.482 134.601V55.1834H630.366C628.542 55.1834 626.858 54.6222 625.455 53.4997C624.192 52.2369 623.49 50.5531 623.49 48.729C623.49 47.0453 624.192 45.3615 625.455 44.0987C626.858 42.9762 628.542 42.2746 630.366 42.4149H695.05C696.874 42.2746 698.558 42.8359 699.961 44.0987Z" fill="#2F495E"/>
<path d="M730.97 138.95C726.34 136.284 722.551 132.636 719.885 128.006C719.043 126.883 718.623 125.62 718.623 124.217C718.623 122.393 719.464 120.709 720.727 119.587C721.85 118.324 723.393 117.623 725.077 117.623C727.603 117.903 729.988 119.166 731.391 121.13C734.478 126.322 740.231 129.409 746.264 129.409C751.175 129.549 755.946 127.585 759.454 124.217C762.961 120.85 764.926 116.219 764.786 111.308V49.2902C764.786 47.4661 765.487 45.642 766.89 44.5195C768.153 43.2567 769.977 42.5551 771.801 42.5551C773.625 42.4148 775.449 43.1164 776.852 44.5195C778.115 45.7823 778.817 47.6064 778.817 49.4305V111.589C778.817 117.202 777.414 122.674 774.607 127.444C771.801 132.215 767.732 136.144 762.961 138.95C757.91 141.756 752.157 143.3 746.264 143.16C740.932 142.879 735.741 141.616 730.97 138.95ZM828.347 139.932C822.735 137.828 817.543 134.6 813.193 130.531C811.369 129.128 810.247 127.024 810.247 124.779C810.247 123.095 810.948 121.411 812.211 120.148C813.474 118.885 815.158 118.184 816.842 118.184C818.385 118.184 819.788 118.745 820.911 119.727C824.278 122.954 828.207 125.62 832.557 127.444C836.906 129.128 841.537 129.97 846.167 129.97C851.499 130.11 856.691 128.707 861.181 125.901C864.969 123.796 867.214 119.868 867.354 115.518C867.495 110.888 865.109 106.538 861.181 104.153C855.568 100.785 849.254 98.54 842.8 97.4175C833.118 95.4531 825.541 92.2259 820.35 87.5956C815.158 83.1056 812.492 76.7915 812.492 68.7937C812.352 63.4618 813.895 58.4105 816.982 54.0608C820.069 49.7111 824.278 46.3436 829.049 44.3792C834.661 41.9939 840.555 40.8714 846.588 41.0117C852.2 41.0117 857.813 41.9939 863.145 43.818C867.775 45.3614 872.125 48.0274 875.773 51.3949C877.738 52.798 878.86 55.043 879 57.4283C879 59.1121 878.299 60.7959 877.036 61.9184C875.913 63.1812 874.23 64.023 872.406 63.8827C871.283 63.8827 870.02 63.4618 869.178 62.7602C866.232 59.9539 862.724 57.8493 858.936 56.5864C855.007 55.043 850.797 54.2011 846.588 54.0608C841.256 53.7802 836.065 55.1833 831.575 57.9896C828.067 60.3749 825.962 64.1633 825.962 68.3727C825.962 72.5821 828.067 76.5109 831.575 78.7559C836.766 81.7025 842.379 83.8072 848.272 84.9297C854.446 86.1925 860.619 88.0166 866.372 90.5422C870.722 92.5066 874.51 95.5935 877.176 99.6625C879.842 104.293 881.245 109.484 880.965 114.816C881.105 120.008 879.421 125.199 876.334 129.409C873.107 133.759 868.757 137.266 863.847 139.371C858.374 141.756 852.481 143.019 846.448 142.879C840.414 143.019 834.24 142.037 828.347 139.932Z" fill="#00C58E"/>
<path d="M75.5788 178.683C75.3983 178.322 75.2179 177.961 75.0374 177.6C73.9545 175.254 73.774 172.727 74.1349 170.38H15.4764L102.833 16.6048L131.53 66.961L139.833 52.161L114.925 8.12195C114.203 6.85854 110.052 0 102.652 0C99.4032 0 94.7105 1.4439 90.7398 8.12195L2.30079 163.702C1.57884 164.966 -2.03092 172.185 1.57884 178.322C3.20323 181.21 6.81299 184.639 14.574 184.639H88.7545C80.813 184.819 77.2032 181.571 75.5788 178.683Z" fill="#00C58E"/>
<path d="M245.959 163.883L173.223 35.7362C172.501 34.4728 168.35 27.6143 160.95 27.6143C157.701 27.6143 153.008 29.0582 149.037 35.7362L139.652 52.1606L147.954 66.9606L160.95 44.0387L232.784 170.2H205.35C205.711 172.365 205.53 174.351 204.808 176.336C204.628 176.697 204.447 177.239 204.267 177.6L204.086 178.141C200.476 184.458 192.535 184.819 190.911 184.819H233.686C235.311 184.819 243.252 184.458 246.862 178.141C248.667 175.434 249.93 170.561 245.959 163.883Z" fill="#108775"/>
<path d="M204.267 178.322L204.447 177.78C204.628 177.419 204.808 176.878 204.989 176.517C205.711 174.532 205.891 172.366 205.53 170.38C205.169 168.214 204.267 166.049 203.184 164.063L148.135 67.1413L139.652 52.3413L131.35 67.1413L76.301 164.063C75.218 166.049 74.4961 168.214 74.1351 170.38C73.7741 172.907 73.9546 175.434 74.8571 177.6C75.0376 177.961 75.218 178.322 75.3985 178.683C77.0229 181.571 80.6327 185 88.3937 185H190.911C192.716 184.819 200.657 184.458 204.267 178.322ZM139.833 81.7608L190.189 170.38H89.4766L139.833 81.7608Z" fill="#2F495E"/>
</svg>
