<svg width="1160" height="183" viewBox="0 0 1160 183" fill="none" xmlns="http://www.w3.org/2000/svg">
<path d="M75.993 60.891C86.118 20.355 111.458 0 151.985 0C212.877 0 220.375 45.581 250.769 53.193C271.037 58.264 288.765 50.583 303.962 30.402C293.836 71.016 268.497 91.285 227.978 91.285C167.086 91.285 159.588 45.703 129.194 38.092C108.926 33.02 91.198 40.701 76.001 60.882L75.993 60.891ZM0 152.176C10.143 111.64 35.456 91.285 75.993 91.285C136.884 91.285 144.382 136.866 174.776 144.478C195.044 149.549 212.772 141.868 227.969 121.687C217.844 162.223 192.504 182.578 151.976 182.578C91.085 182.578 83.587 136.997 53.193 129.385C32.925 124.314 15.197 131.995 0 152.176Z" fill="url(#paint0_linear_5_46)"/>
<path d="M374.242 58.043H345V40.5201H423.891V58.043H394.662V137.519H374.242V58.043ZM462.083 128.554C459.373 131.635 456.177 134.246 452.621 136.292C449.143 138.286 444.63 139.284 439.094 139.284C436.037 139.298 432.994 138.888 430.053 138.056C427.331 137.315 424.773 136.023 422.561 134.258C420.438 132.544 418.725 130.357 417.472 127.67C416.219 124.986 415.554 121.814 415.554 118.079C415.554 113.194 416.64 109.202 418.827 106.121C421.014 103.024 423.968 100.545 427.394 98.9199C430.923 97.1928 434.887 95.9782 439.286 95.2491C443.684 94.5199 448.197 94.0595 452.698 93.8932L461.801 93.4832V89.9535C461.801 85.6057 460.612 82.6117 458.195 81.0006C455.78 79.3895 452.953 78.5714 449.705 78.5714C442.163 78.5714 437.866 81.4222 436.791 87.1394L419.403 85.5147C420.656 78.0975 423.93 72.7246 429.185 69.3999C434.44 66.0752 441.523 64.4371 450.409 64.4371C455.844 64.4371 460.471 65.0772 464.282 66.4079C468.093 67.7366 471.161 69.6049 473.462 72.0341C475.829 74.5678 477.553 77.612 478.501 80.9367C479.549 84.4162 480.059 88.354 480.059 92.7038V137.532H462.083V128.579V128.554ZM461.674 105.863L453.236 106.273C449.245 106.44 446.024 106.861 443.582 107.501C441.14 108.142 439.233 108.935 437.955 109.88C436.677 110.826 435.743 111.927 435.308 113.205C434.848 114.561 434.618 115.994 434.632 117.427C434.632 119.779 435.449 121.647 437.06 122.99C438.671 124.334 440.96 125.036 443.837 125.036C448.746 125.036 452.737 123.91 455.805 121.634C457.532 120.355 458.951 118.744 460.024 116.812C461.097 114.882 461.648 112.439 461.648 109.548V105.877L461.674 105.863ZM495.506 66.5994H514.557V137.507H495.506V66.5994ZM495.251 40.5085H514.812V57.6213H495.251V40.5085ZM530.847 40.5085H549.898V137.507H530.847V40.5085ZM558.426 66.5994H579.088L589.024 113.602L602.601 67.2763H619.198L631.984 113.743L641.919 66.7405H661.776L641.101 137.648H622.599L609.941 90.9128L597.154 137.648H579.076L558.413 66.7405L558.426 66.5994ZM670.432 66.5994H689.483V137.507H670.432V66.5994ZM670.177 40.5085H689.738V57.6213H670.177V40.5085ZM705.645 66.5994H724.147V76.3839C726.96 72.2276 730.284 69.1833 734.12 67.2763C737.854 65.3964 741.97 64.4254 746.139 64.4254C754.219 64.4254 760.203 66.5355 764.103 70.7422C768.003 74.9507 769.96 81.5886 769.96 90.644V137.507H750.92V93.2414C750.92 88.1238 749.975 84.863 748.057 83.0468C746.139 81.2307 743.619 80.3353 740.448 80.3353C738.02 80.3353 735.897 80.7201 734.12 81.4222C732.343 82.1262 730.692 83.1881 729.159 84.5439C727.842 85.8745 726.767 87.4083 725.963 89.0967C725.106 90.8993 724.671 92.8701 724.683 94.8642V137.519H705.504V66.611L705.645 66.5994ZM834.529 128.144C829.684 135.55 821.346 139.911 812.499 139.694C802.526 139.694 795.109 136.343 790.186 129.641C785.263 122.939 782.848 113.654 782.848 101.798C782.796 96.6686 783.512 91.5646 784.969 86.654C786.377 82.074 788.384 78.1362 791.017 74.8366C793.601 71.5738 796.913 68.9396 800.671 67.1622C804.507 65.3712 808.79 64.4506 813.585 64.4506C817.114 64.4506 820.617 65.0908 824.107 66.3692C827.599 67.6477 830.884 70.2064 833.978 73.711V40.5588H853.031V137.557H834.541V128.183L834.529 128.144ZM834.119 101.247C834.119 96.7189 833.736 93.1002 832.841 90.3751C831.946 87.6519 830.821 85.4509 829.107 83.7257C827.599 82.2404 825.757 81.1418 823.738 80.5268C821.857 80.0278 819.914 79.786 817.97 79.786C815.938 79.7724 813.918 80.1941 812.05 81.0141C810.184 81.8322 808.574 83.0991 807.154 84.8127C805.735 86.5263 804.635 88.8027 803.829 91.5898C803.024 94.3787 802.601 97.7305 802.601 101.643C802.601 105.89 802.986 109.445 803.881 112.31C804.776 115.176 805.708 117.477 807.077 119.243C808.446 121.007 810.018 122.274 811.834 123.042C813.649 123.808 815.606 124.32 817.69 124.32C822.216 124.32 825.936 123.003 828.839 120.381C830.668 118.526 832.035 116.275 832.841 113.793C833.684 111.211 834.119 107.884 834.119 103.817V101.388V101.247ZM982.976 103.958C982.516 109.126 981.313 113.896 979.37 118.284C977.477 122.582 974.755 126.456 971.352 129.691C967.748 133.043 963.477 135.6 958.834 137.225C953.9 139.016 948.171 139.936 941.637 139.936C934.298 139.936 927.828 138.708 922.254 136.265C916.858 133.95 912.063 130.42 908.254 125.945C904.481 121.506 901.656 116.135 899.75 109.828C897.845 103.523 896.9 96.5797 896.9 88.9807C896.9 81.1031 897.923 74.0437 900.019 67.7889C902.117 61.534 905.108 56.2017 908.994 51.763C912.869 47.3378 917.714 43.8468 923.136 41.5684C928.66 39.2165 934.938 38.0387 941.931 38.0387C948.095 38.0387 953.478 38.8065 958.041 40.3422C962.606 41.8759 966.481 44.102 969.613 46.9916C972.746 49.883 975.24 53.3876 977.158 57.455C979.151 61.828 980.571 66.4466 981.363 71.1773L961.226 73.7613C960.228 68.0577 958.285 63.5686 955.472 60.3058C952.659 57.045 948.082 55.4203 941.92 55.4203C934.12 55.4203 928.2 58.3369 924.186 64.1817C920.17 70.0266 918.111 78.2755 918.111 88.969C918.111 99.7516 920.286 108.153 924.582 113.832C928.532 119.46 935.04 122.734 941.92 122.529C948.184 122.529 952.788 120.918 955.729 117.708C958.668 114.497 960.497 109.906 961.226 103.92L982.976 103.958ZM1012.6 105.877C1013.05 111.849 1014.98 116.199 1018.36 118.922C1021.73 121.647 1026.75 123.015 1033.38 123.015C1036.55 123.015 1039.23 122.671 1041.41 121.992C1043.58 121.315 1045.35 120.406 1046.71 119.28C1048.02 118.22 1049.03 116.837 1049.63 115.278C1050.23 113.665 1050.54 111.965 1050.51 110.252C1050.51 107.693 1049.58 105.328 1047.67 103.115C1045.77 100.902 1042.28 99.2777 1037.19 98.2933L1024.53 95.9898C1019.41 95.0943 1015.15 93.9048 1011.33 92.4601C1007.52 91.0153 1004.33 89.1354 1001.74 86.8319C999.15 84.5051 997.116 81.5886 995.838 78.3412C994.482 74.9895 993.792 70.9994 993.792 66.3808C993.703 62.1355 994.662 57.9405 996.58 54.1554C998.434 50.6373 1001.08 47.6182 1004.33 45.3302C1007.65 42.9764 1011.62 41.1854 1016.22 39.9573C1020.82 38.7291 1025.94 38.1296 1031.46 38.1296C1038.53 38.1296 1044.42 38.9477 1049.14 40.5588C1053.86 42.1699 1057.67 44.3322 1060.57 47.0186C1063.48 49.7032 1065.62 52.7726 1067.03 56.3293C1068.44 59.8842 1069.37 63.53 1069.84 67.3285L1050.66 69.7577C1049.67 64.4119 1047.75 60.5496 1044.91 58.2093C1042.07 55.8691 1037.73 54.6796 1031.92 54.6796C1028.47 54.6796 1025.65 54.9736 1023.42 55.5751C1021.18 56.1746 1019.4 56.9309 1018.05 57.8767C1016.79 58.6948 1015.81 59.8455 1015.18 61.2013C1014.65 62.4817 1014.36 63.7853 1014.36 65.1411C1014.36 68.7597 1015.39 71.4849 1017.43 73.2874C1019.48 75.092 1022.93 76.5116 1027.83 77.5096L1041.15 80.0916C1051.68 82.1765 1059.38 85.5535 1064.3 90.1972C1069.2 94.839 1071.63 101.707 1071.63 110.366C1071.67 114.408 1070.87 118.423 1069.25 122.133C1067.63 125.753 1065.2 128.951 1062.17 131.507C1058.72 134.36 1054.72 136.495 1050.42 137.762C1045.72 139.259 1040.19 140 1033.83 140C1020.58 140 1010.45 137.186 1003.43 131.507C996.414 125.829 992.616 117.439 991.926 105.902H1012.46L1012.6 105.877ZM1100.83 105.877C1101.27 111.849 1103.2 116.199 1106.58 118.922C1109.95 121.647 1115.02 123.015 1121.6 123.015C1124.32 123.079 1127.04 122.734 1129.66 121.992C1131.86 121.315 1133.6 120.406 1134.96 119.28C1136.27 118.22 1137.28 116.837 1137.88 115.278C1138.48 113.665 1138.79 111.965 1138.76 110.252C1138.72 107.604 1137.71 105.059 1135.91 103.115C1133.99 100.902 1130.51 99.2777 1125.43 98.2933L1112.77 95.9898C1107.65 95.0943 1103.38 93.9048 1099.57 92.4601C1095.76 91.0153 1092.57 89.1354 1089.98 86.8319C1087.4 84.5303 1085.43 81.6911 1084.06 78.3412C1082.69 74.9895 1082.02 70.9994 1082.02 66.3808C1081.93 62.1355 1082.89 57.9405 1084.8 54.1554C1086.68 50.6238 1089.33 47.5679 1092.55 45.2025C1095.85 42.7327 1099.84 41.0578 1104.44 39.8296C1109.05 38.6015 1114.16 38 1119.68 38C1126.76 38 1132.65 38.82 1137.37 40.4311C1142.09 42.0422 1145.88 44.2046 1148.8 46.8891C1151.64 49.4479 1153.85 52.6449 1155.26 56.2017C1156.65 59.7314 1157.59 63.4275 1158.07 67.2009L1138.89 69.6301C1137.89 64.2843 1135.97 60.4219 1133.14 58.0816C1130.3 55.7414 1125.95 54.5519 1120.14 54.5519C1116.69 54.5519 1113.88 54.8459 1111.64 55.4455C1109.4 56.047 1107.63 56.8013 1106.27 57.749C1105.02 58.5671 1104.03 59.7179 1103.41 61.0737C1102.87 62.3154 1102.59 63.6576 1102.59 65.0134C1102.59 68.6321 1103.61 71.3572 1105.66 73.1598C1107.7 74.9643 1111.16 76.3839 1116.06 77.3819L1129.52 80.0664C1140.04 82.1514 1147.75 85.5283 1152.66 90.1701C1157.57 94.8139 1160 101.682 1160 110.341C1160.05 114.383 1159.23 118.387 1157.62 122.094C1156 125.715 1153.58 128.925 1150.54 131.471C1147.42 134.155 1143.51 136.229 1138.77 137.737C1134.04 139.246 1128.54 139.975 1122.19 139.975C1108.94 139.975 1098.82 137.161 1091.78 131.482C1084.75 125.804 1080.97 117.414 1080.43 105.877H1100.83Z" fill="#24292E"/>
<defs>
<linearGradient id="paint0_linear_5_46" x1="-2.34e-06" y1="-162.294" x2="118.346" y2="385.008" gradientUnits="userSpaceOnUse">
<stop stop-color="#2383AE"/>
<stop offset="1" stop-color="#6DD7B9"/>
</linearGradient>
</defs>
</svg>
