<svg width="644" height="185" viewBox="0 0 644 185" fill="none" xmlns="http://www.w3.org/2000/svg">
<path fill-rule="evenodd" clip-rule="evenodd" d="M213.627 185L106.813 0L0 185H213.627Z" fill="black"/>
<path fill-rule="evenodd" clip-rule="evenodd" d="M302.329 103.625C302.329 80.6791 319.207 65.3738 342.671 65.3738C366.152 65.3738 383.047 80.6791 383.079 103.6C383.071 106.088 382.82 108.57 382.33 111.01H322.821C326.032 119.506 334.677 124.825 344.861 124.825C352.156 124.825 358.677 122.116 362.974 117.415L379.226 126.809C371.496 136.269 358.998 141.876 344.828 141.876C321.348 141.876 302.329 126.57 302.329 103.625ZM342.671 82.3751C332.512 82.3751 325.242 87.7102 322.583 96.1903H362.752C360.117 87.7102 352.831 82.3751 342.671 82.3751ZM258.9 144L317.783 42H295.685L258.883 105.749L222.073 42H200L258.9 144ZM489.715 124.874C476.797 124.874 468.465 116.378 468.465 103.625C468.465 90.8799 476.813 82.3751 489.748 82.3751C498.499 82.3751 505.069 86.3517 508.445 92.8312L524.763 83.4207C517.987 72.1578 505.341 65.3738 489.748 65.3738C466.324 65.3738 449.405 80.6709 449.405 103.625C449.405 126.579 466.267 141.876 489.748 141.876C505.341 141.876 518.012 135.1 524.763 123.837L508.412 114.418C505.036 120.906 498.466 124.874 489.715 124.874ZM643.731 139.719V42H624.606V139.719H643.731ZM531.144 103.625C531.144 80.6791 548.021 65.3738 571.486 65.3738C594.967 65.3738 611.853 80.6791 611.919 103.6C611.913 106.088 611.665 108.57 611.178 111.01H551.636C554.847 119.506 563.491 124.825 573.676 124.825C580.97 124.825 587.499 122.116 591.789 117.415L608.041 126.809C600.31 136.269 587.812 141.876 573.643 141.876C550.179 141.876 531.144 126.57 531.144 103.625ZM571.486 82.3751C561.285 82.3751 554.056 87.7102 551.405 96.1903H591.566C588.932 87.7102 581.687 82.3751 571.486 82.3751ZM442.967 88.0889V67.5062C427.472 67.5062 414.917 76.2579 414.917 87.0268V67.5062H395.791V139.719H414.917V108.301C414.917 95.5481 423.817 87.0515 436.167 87.0515C438.471 87.0757 440.76 87.4249 442.967 88.0889Z" fill="black"/>
</svg>
